<?xml version="1.0" encoding="UTF-8"?>
<!DOCTYPE svg PUBLIC "-//W3C//DTD SVG 1.1//EN" "http://www.w3.org/Graphics/SVG/1.1/DTD/svg11.dtd">
<!-- Creator: CorelDRAW -->
<svg xmlns="http://www.w3.org/2000/svg" xml:space="preserve" width="8.9662mm" height="16.7538mm" style="shape-rendering:geometricPrecision; text-rendering:geometricPrecision; image-rendering:optimizeQuality; fill-rule:evenodd; clip-rule:evenodd"
viewBox="0 0 8.9658 16.7531"
 xmlns:xlink="http://www.w3.org/1999/xlink">
 <defs>
  <style type="text/css">
   <![CDATA[
    .str0 {stroke:#0A0B0C;stroke-width:0.499978;stroke-linejoin:round}
    .fil0 {fill:none}
    .fil1 {fill:white}
   ]]>
  </style>
 </defs>
 <g id="Layer_x0020_1">
  <metadata id="CorelCorpID_0Corel-Layer"/>
  <g>
   <path class="fil0 str0" d="M8.71621 2.99597l-0.0559975 -2.61008c-5.05367,-0.737567 -6.23592,1.54693 -5.90844,5.82774l-2.50179 -0.000199991 0 2.89407 2.51529 0 0 7.39557 3.00087 0 0 -7.41367 2.46849 0 0.357984 -2.87567 -2.79888 0 -0.00479979 0 0 -2.10061c0,-0.614273 0.502778,-1.11715 1.11715,-1.11715l1.80522 0 0 0.00539976 0.00489978 -0.00539976z"/>
   <path id="1" class="fil1" d="M8.71621 2.99597l-0.0559975 -2.61008c-5.05367,-0.737567 -6.23592,1.54693 -5.90844,5.82774l-2.50179 -0.000199991 0 2.89407 2.51529 0 0 7.39557 3.00087 0 0 -7.41367 2.46849 0 0.357984 -2.87567 -2.79888 0 -0.00479979 0 0 -2.10061c0,-0.614273 0.502778,-1.11715 1.11715,-1.11715l1.80522 0 0 0.00539976 0.00489978 -0.00539976z"/>
  </g>
 </g>
</svg>
