<?xml version="1.0" encoding="UTF-8"?>
<!DOCTYPE svg PUBLIC "-//W3C//DTD SVG 1.1//EN" "http://www.w3.org/Graphics/SVG/1.1/DTD/svg11.dtd">
<!-- Creator: CorelDRAW -->
<svg xmlns="http://www.w3.org/2000/svg" xml:space="preserve" width="9.8778mm" height="17.5837mm" style="shape-rendering:geometricPrecision; text-rendering:geometricPrecision; image-rendering:optimizeQuality; fill-rule:evenodd; clip-rule:evenodd"
viewBox="0 0 9.8764 17.5812"
 xmlns:xlink="http://www.w3.org/1999/xlink">
 <defs>
  <style type="text/css">
   <![CDATA[
    .str0 {stroke:#0A0B0C;stroke-width:1.49979;stroke-linejoin:round}
    .fil0 {fill:none}
    .fil1 {fill:white}
   ]]>
  </style>
 </defs>
 <g id="Layer_x0020_1">
  <metadata id="CorelCorpID_0Corel-Layer"/>
  <g>
   <path class="fil0 str0" d="M9.12791 3.46521l-0.0554921 -2.58273c-5.00099,-0.729897 -6.17083,1.53068 -5.84677,5.76688l-2.47575 -0.000199972 0 2.86389 2.48915 0 0 7.31826 2.96948 0 0 -7.33626 2.44275 0 0.35425 -2.8456 -2.76961 0 -0.00479932 0 0 -2.07871c0,-0.607814 0.497529,-1.10554 1.10544,-1.10554l1.78645 0 0 0.00539923 0.00489931 -0.00539923z"/>
   <path id="1" class="fil1" d="M9.12791 3.46521l-0.0554921 -2.58273c-5.00099,-0.729897 -6.17083,1.53068 -5.84677,5.76688l-2.47575 -0.000199972 0 2.86389 2.48915 0 0 7.31826 2.96948 0 0 -7.33626 2.44275 0 0.35425 -2.8456 -2.76961 0 -0.00479932 0 0 -2.07871c0,-0.607814 0.497529,-1.10554 1.10544,-1.10554l1.78645 0 0 0.00539923 0.00489931 -0.00539923z"/>
  </g>
 </g>
</svg>
