<?xml version="1.0" encoding="UTF-8"?>
<!DOCTYPE svg PUBLIC "-//W3C//DTD SVG 1.1//EN" "http://www.w3.org/Graphics/SVG/1.1/DTD/svg11.dtd">
<!-- Creator: CorelDRAW -->
<svg xmlns="http://www.w3.org/2000/svg" xml:space="preserve" width="9.378mm" height="17.0849mm" style="shape-rendering:geometricPrecision; text-rendering:geometricPrecision; image-rendering:optimizeQuality; fill-rule:evenodd; clip-rule:evenodd"
viewBox="0 0 9.377 17.0831"
 xmlns:xlink="http://www.w3.org/1999/xlink">
 <defs>
  <style type="text/css">
   <![CDATA[
    .str0 {stroke:#0A0B0C;stroke-width:0.999893;stroke-linejoin:round}
    .fil0 {fill:none}
    .fil1 {fill:white}
   ]]>
  </style>
 </defs>
 <g id="Layer_x0020_1">
  <metadata id="CorelCorpID_0Corel-Layer"/>
  <g>
   <path class="fil0 str0" d="M8.87805 3.21656l-0.0552941 -2.58302c-5.00117,-0.730022 -6.17124,1.53104 -5.84718,5.76719l-2.47564 -0.000299968 0 2.86379 2.48903 0 0 7.31892 2.96968 0 0 -7.33672 2.44264 0 0.354462 -2.8455 -2.7696 0 -0.00479949 0 0 -2.07878c0,-0.608135 0.497447,-1.10558 1.10558,-1.10558l1.78631 0 0 0.00519945 0.00479949 -0.00519945z"/>
   <path id="1" class="fil1" d="M8.87805 3.21656l-0.0552941 -2.58302c-5.00117,-0.730022 -6.17124,1.53104 -5.84718,5.76719l-2.47564 -0.000299968 0 2.86379 2.48903 0 0 7.31892 2.96968 0 0 -7.33672 2.44264 0 0.354462 -2.8455 -2.7696 0 -0.00479949 0 0 -2.07878c0,-0.608135 0.497447,-1.10558 1.10558,-1.10558l1.78631 0 0 0.00519945 0.00479949 -0.00519945z"/>
  </g>
 </g>
</svg>
