<?xml version="1.0" encoding="UTF-8"?>
<!DOCTYPE svg PUBLIC "-//W3C//DTD SVG 1.1//EN" "http://www.w3.org/Graphics/SVG/1.1/DTD/svg11.dtd">
<!-- Creator: CorelDRAW -->
<svg xmlns="http://www.w3.org/2000/svg" xml:space="preserve" width="10.377mm" height="18.083mm" style="shape-rendering:geometricPrecision; text-rendering:geometricPrecision; image-rendering:optimizeQuality; fill-rule:evenodd; clip-rule:evenodd"
viewBox="0 0 10.375 18.0795"
 xmlns:xlink="http://www.w3.org/1999/xlink">
 <defs>
  <style type="text/css">
   <![CDATA[
    .str0 {stroke:#838281;stroke-width:1.99961;stroke-linejoin:round}
    .fil0 {fill:none}
    .fil1 {fill:white}
   ]]>
  </style>
 </defs>
 <g id="Layer_x0020_1">
  <metadata id="CorelCorpID_0Corel-Layer"/>
  <g>
   <path class="fil0 str0" d="M9.37719 3.71428l-0.0552893 -2.5828c-5.00074,-0.729959 -6.17071,1.5309 -5.84667,5.76669l-2.47542 -0.000299942 0 2.86355 2.48882 0 0 7.31829 2.96943 0 0 -7.33609 2.44243 0 0.354432 -2.84525 -2.76937 0 -0.00479908 0 0 -2.0786c0,-0.608083 0.497404,-1.10549 1.10549,-1.10549l1.78616 0 0 0.005199 0.00479908 -0.005199z"/>
   <path id="1" class="fil1" d="M9.37719 3.71428l-0.0552893 -2.5828c-5.00074,-0.729959 -6.17071,1.5309 -5.84667,5.76669l-2.47542 -0.000299942 0 2.86355 2.48882 0 0 7.31829 2.96943 0 0 -7.33609 2.44243 0 0.354432 -2.84525 -2.76937 0 -0.00479908 0 0 -2.0786c0,-0.608083 0.497404,-1.10549 1.10549,-1.10549l1.78616 0 0 0.005199 0.00479908 -0.005199z"/>
  </g>
 </g>
</svg>
