<?xml version="1.0" encoding="UTF-8"?>
<!DOCTYPE svg PUBLIC "-//W3C//DTD SVG 1.1//EN" "http://www.w3.org/Graphics/SVG/1.1/DTD/svg11.dtd">
<!-- Creator: CorelDRAW -->
<svg xmlns="http://www.w3.org/2000/svg" xml:space="preserve" width="8.7166mm" height="8.7166mm" style="shape-rendering:geometricPrecision; text-rendering:geometricPrecision; image-rendering:optimizeQuality; fill-rule:evenodd; clip-rule:evenodd"
viewBox="0 0 8.7166 8.7166"
 xmlns:xlink="http://www.w3.org/1999/xlink">
 <defs>
  <style type="text/css">
   <![CDATA[
    .str0 {stroke:#0A0B0C;stroke-width:0.25}
    .str1 {stroke:#0A0B0C;stroke-width:0.25;stroke-linecap:round;stroke-linejoin:round}
    .fil0 {fill:none}
    .fil1 {fill:white}
   ]]>
  </style>
 </defs>
 <g id="Layer_x0020_1">
  <metadata id="CorelCorpID_0Corel-Layer"/>
  <g id="_124380384">
   <g>
    <path id="_33737584" class="fil0 str0" d="M4.3583 0.125c2.3376,0 4.2333,1.8957 4.2333,4.2333 0,2.3376 -1.8957,4.2333 -4.2333,4.2333 -0.8534,0 -1.6478,-0.253 -2.3126,-0.6874l-1.6488 0.5213 0.5378 -1.5775c-0.5088,-0.6988 -0.8097,-1.5591 -0.8097,-2.4897 0,-2.3376 1.8957,-4.2333 4.2333,-4.2333z"/>
    <path id="_337375841" class="fil1" d="M4.3583 0.125c2.3376,0 4.2333,1.8957 4.2333,4.2333 0,2.3376 -1.8957,4.2333 -4.2333,4.2333 -0.8534,0 -1.6478,-0.253 -2.3126,-0.6874l-1.6488 0.5213 0.5378 -1.5775c-0.5088,-0.6988 -0.8097,-1.5591 -0.8097,-2.4897 0,-2.3376 1.8957,-4.2333 4.2333,-4.2333z"/>
   </g>
   <g>
    <path class="fil0 str1" d="M2.6587 2.0824l0.3521 0c0.1754,-0.0148 0.3437,0.6169 0.6119,1.2094l0 0.0908c-0.1836,0.4359 -0.3853,0.4376 -0.4155,0.628 0,0.2627 0.9076,1.249 1.7386,1.5706 0.1069,0.0584 0.1965,-0.0056 0.2761,-0.1147l0.3543 -0.4401c0.0615,-0.0785 0.1505,-0.0879 0.2759,-0.0366l0.974 0.4689c0.1231,0.0565 0.1356,0.1763 0.1041,0.3334l-0.0779 0.3202c-0.1833,0.409 -0.9056,0.7667 -1.4636,0.5886 -2.0483,-0.4084 -4.204,-2.9984 -3.2063,-4.2583 0.1342,-0.1754 0.2833,-0.3394 0.4763,-0.3602z"/>
    <path id="1" class="fil1" d="M2.6587 2.0824l0.3521 0c0.1754,-0.0148 0.3437,0.6169 0.6119,1.2094l0 0.0908c-0.1836,0.4359 -0.3853,0.4376 -0.4155,0.628 0,0.2627 0.9076,1.249 1.7386,1.5706 0.1069,0.0584 0.1965,-0.0056 0.2761,-0.1147l0.3543 -0.4401c0.0615,-0.0785 0.1505,-0.0879 0.2759,-0.0366l0.974 0.4689c0.1231,0.0565 0.1356,0.1763 0.1041,0.3334l-0.0779 0.3202c-0.1833,0.409 -0.9056,0.7667 -1.4636,0.5886 -2.0483,-0.4084 -4.204,-2.9984 -3.2063,-4.2583 0.1342,-0.1754 0.2833,-0.3394 0.4763,-0.3602z"/>
   </g>
  </g>
 </g>
</svg>
