<?xml version="1.0" encoding="UTF-8"?>
<!DOCTYPE svg PUBLIC "-//W3C//DTD SVG 1.1//EN" "http://www.w3.org/Graphics/SVG/1.1/DTD/svg11.dtd">
<!-- Creator: CorelDRAW -->
<svg xmlns="http://www.w3.org/2000/svg" xml:space="preserve" width="4.6597mm" height="8.7161mm" style="shape-rendering:geometricPrecision; text-rendering:geometricPrecision; image-rendering:optimizeQuality; fill-rule:evenodd; clip-rule:evenodd"
viewBox="0 0 4.6594 8.71554"
 xmlns:xlink="http://www.w3.org/1999/xlink">
 <defs>
  <style type="text/css">
   <![CDATA[
    .fil1 {fill:white}
    .fil0 {fill:#0A0B0C;fill-rule:nonzero}
   ]]>
  </style>
 </defs>
 <g id="Layer_x0020_1">
  <metadata id="CorelCorpID_0Corel-Layer"/>
  <g>
   <path class="fil0" d="M4.52311 0.0722953l0.106893 0.121092 0.0291981 1.35951 -0.248984 0.00479969 -0.0291981 -1.35951 0.142091 -0.125892zm0.106893 0.121092l-0.248984 0.00479969 0 -0.00639959 0.000399974 -0.00629959 0.000699955 -0.00629959 0.000999936 -0.00609961 0.00119992 -0.00609961 0.0015999 -0.00589962 0.00179988 -0.00579963 0.00219986 -0.00569963 0.00239985 -0.00559964 0.00259983 -0.00539965 0.00289981 -0.00529966 0.0030998 -0.00509967 0.00339978 -0.00489968 0.00359977 -0.00479969 0.00389975 -0.0045997 0.00399974 -0.00439972 0.00419973 -0.00419973 0.00449971 -0.00399974 0.0045997 -0.00379976 0.00479969 -0.00359977 0.00499968 -0.00329979 0.00519967 -0.0030998 0.00529966 -0.00289981 0.00549965 -0.00259983 0.00559964 -0.00229985 0.00569963 -0.00209986 0.00589962 -0.00179988 0.00599961 -0.0014999 0.00609961 -0.00119992 0.0061996 -0.000899942 0.00629959 -0.000599961 0.00639959 -0.000299981 0.00639959 0 0.00629959 0.000399974 0.00629959 0.000699955 0.00609961 0.000999936 0.00609961 0.00119992 0.00589962 0.0015999 0.00579963 0.00179988 0.00569963 0.00219986 0.00559964 0.00239985 0.00539965 0.00259983 0.00529966 0.00289981 0.00509967 0.0030998 0.00489968 0.00339978 0.00479969 0.00359977 0.0045997 0.00389975 0.00439972 0.00399974 0.00419973 0.00419973 0.00399974 0.00449971 0.00379976 0.0045997 0.00359977 0.00479969 0.00329979 0.00499968 0.0030998 0.00519967 0.00289981 0.00529966 0.00259983 0.00549965 0.00229985 0.00559964 0.00209986 0.00569963 0.00179988 0.00589962 0.0014999 0.00599961 0.00119992 0.00609961 0.000899942 0.0061996 0.000599961 0.00629959 0.000299981 0.00639959zm-3.20189 3.1623l0 -0.248984 -0.124492 0.133791 -0.0136991 -0.208487 -0.00879943 -0.202687 -0.00369976 -0.196887 0.0014999 -0.189988 0.00699955 -0.184988 0.0132991 -0.178489 0.0191988 -0.172189 0.0253984 -0.166489 0.0326979 -0.15959 0.0399974 -0.15359 0.046697 -0.146491 0.0548965 -0.140291 0.0630959 -0.132991 0.0715954 -0.126192 0.0798949 -0.118692 0.0893942 -0.111093 0.0979937 -0.102993 0.107393 -0.0948939 0.116093 -0.0858945 0.125992 -0.076995 0.134491 -0.0679956 0.143991 -0.0592962 0.15349 -0.0500968 0.16229 -0.0407974 0.172289 -0.031798 0.181688 -0.0223986 0.191488 -0.0136991 0.201287 -0.00449971 0.211686 0.00429972 0.222886 0.0132991 0.233685 0.0227985 0.244284 0.0318979 -0.0351977 0.246984 -0.237485 -0.030898 -0.224886 -0.0217986 -0.213086 -0.0132991 -0.201887 -0.00429972 -0.190488 0.00449971 -0.178888 0.0126992 -0.167889 0.0213986 -0.15669 0.0289981 -0.146691 0.0367976 -0.135891 0.0442971 -0.126392 0.0514967 -0.117092 0.0591962 -0.107393 0.0661957 -0.0994936 0.0732953 -0.0907942 0.0800948 -0.0833946 0.0873944 -0.0755951 0.0944939 -0.0690956 0.102093 -0.061996 0.109593 -0.0552964 0.117392 -0.0488969 0.124692 -0.0428972 0.132891 -0.0359977 0.139791 -0.0298981 0.14799 -0.0243984 0.15469 -0.0181988 0.16239 -0.0122992 0.169689 -0.00699955 0.176189 -0.0014999 0.184188 0.00369976 0.190088 0.00879943 0.196887 0.0136991 0.203487 -0.124492 0.133791zm-0.124492 -0.115193l0.248984 -0.0185988 0.000299981 0.00639959 0 0.00639959 -0.000299981 0.00629959 -0.000699955 0.0061996 -0.000899942 0.00609961 -0.00129992 0.00599961 -0.0014999 0.00599961 -0.00179988 0.00579963 -0.00209986 0.00569963 -0.00229985 0.00549965 -0.00259983 0.00549965 -0.00289981 0.00529966 -0.0030998 0.00509967 -0.00329979 0.00499968 -0.00359977 0.00479969 -0.00379976 0.0045997 -0.00399974 0.00449971 -0.00429972 0.00429972 -0.00439972 0.00399974 -0.0045997 0.00379976 -0.00479969 0.00369976 -0.00499968 0.00329979 -0.00519967 0.00319979 -0.00529966 0.00289981 -0.00549965 0.00269983 -0.00559964 0.00229985 -0.00579963 0.00219986 -0.00589962 0.00179988 -0.00609961 0.0015999 -0.00609961 0.00119992 -0.00629959 0.000999936 -0.00639959 0.000599961 -0.00639959 0.000299981 -0.00639959 0 -0.00629959 -0.000299981 -0.0061996 -0.000699955 -0.00609961 -0.000899942 -0.00599961 -0.00129992 -0.00599961 -0.0014999 -0.00579963 -0.00179988 -0.00569963 -0.00209986 -0.00549965 -0.00229985 -0.00549965 -0.00259983 -0.00529966 -0.00289981 -0.00509967 -0.0030998 -0.00499968 -0.00329979 -0.00479969 -0.00359977 -0.0045997 -0.00379976 -0.00449971 -0.00399974 -0.00429972 -0.00429972 -0.00399974 -0.00439972 -0.00379976 -0.0045997 -0.00369976 -0.00479969 -0.00329979 -0.00499968 -0.00319979 -0.00519967 -0.00289981 -0.00529966 -0.00269983 -0.00549965 -0.00229985 -0.00559964 -0.00219986 -0.00579963 -0.00179988 -0.00589962 -0.0015999 -0.00609961 -0.00119992 -0.00609961 -0.000999936 -0.00629959 -0.000599961 -0.00639959zm-1.30362 -0.00939939l0.124992 -0.124492 1.30312 9.99936e-005 0 0.248984 -1.30312 -9.99936e-005 -0.124992 -0.124492zm0.124992 -0.124492l0 0.248984 -0.00639959 -0.000199987 -0.00629959 -0.000399974 -0.0061996 -0.000799948 -0.0061996 -0.00109993 -0.00599961 -0.00139991 -0.00589962 -0.00169989 -0.00579963 -0.00199987 -0.00559964 -0.00219986 -0.00549965 -0.00249984 -0.00539965 -0.00269983 -0.00519967 -0.00299981 -0.00509967 -0.00329979 -0.00489968 -0.00349977 -0.0046997 -0.00359977 -0.00449971 -0.00399974 -0.00429972 -0.00409974 -0.00409974 -0.00429972 -0.00399974 -0.00449971 -0.00359977 -0.0046997 -0.00349977 -0.00489968 -0.00329979 -0.00509967 -0.00299981 -0.00519967 -0.00269983 -0.00539965 -0.00249984 -0.00549965 -0.00219986 -0.00559964 -0.00199987 -0.00579963 -0.00169989 -0.00589962 -0.00139991 -0.00599961 -0.00109993 -0.0061996 -0.000799948 -0.0061996 -0.000399974 -0.00629959 -0.000199987 -0.00639959 0.000199987 -0.00639959 0.000399974 -0.00629959 0.000799948 -0.0061996 0.00109993 -0.0061996 0.00139991 -0.00599961 0.00169989 -0.00589962 0.00199987 -0.00579963 0.00219986 -0.00559964 0.00249984 -0.00549965 0.00269983 -0.00539965 0.00299981 -0.00519967 0.00329979 -0.00509967 0.00349977 -0.00489968 0.00359977 -0.0046997 0.00399974 -0.00449971 0.00409974 -0.00429972 0.00429972 -0.00409974 0.00449971 -0.00399974 0.0046997 -0.00359977 0.00489968 -0.00349977 0.00509967 -0.00329979 0.00519967 -0.00299981 0.00539965 -0.00269983 0.00549965 -0.00249984 0.00559964 -0.00219986 0.00579963 -0.00199987 0.00589962 -0.00169989 0.00599961 -0.00139991 0.0061996 -0.00109993 0.0061996 -0.000799948 0.00629959 -0.000399974 0.00639959 -0.000199987zm0 1.75689l-0.124992 -0.124992 0 -1.5074 0.249984 0 0 1.5074 -0.124992 0.124992zm-0.124992 -0.124992l0.249984 0 -0.000199987 0.00639959 -0.000399974 0.00639959 -0.000799948 0.0061996 -0.00109993 0.0061996 -0.00139991 0.00599961 -0.00169989 0.00599961 -0.00199987 0.00579963 -0.00219986 0.00559964 -0.00249984 0.00559964 -0.00279982 0.00539965 -0.00299981 0.00519967 -0.00329979 0.00509967 -0.00339978 0.00489968 -0.00379976 0.0046997 -0.00389975 0.00449971 -0.00409974 0.00439972 -0.00439972 0.00409974 -0.00449971 0.00389975 -0.0046997 0.00379976 -0.00489968 0.00339978 -0.00509967 0.00329979 -0.00519967 0.00299981 -0.00539965 0.00279982 -0.00559964 0.00249984 -0.00559964 0.00219986 -0.00579963 0.00199987 -0.00599961 0.00169989 -0.00599961 0.00139991 -0.0061996 0.00109993 -0.0061996 0.000799948 -0.00639959 0.000399974 -0.00639959 0.000199987 -0.00639959 -0.000199987 -0.00639959 -0.000399974 -0.0061996 -0.000799948 -0.0061996 -0.00109993 -0.00599961 -0.00139991 -0.00599961 -0.00169989 -0.00579963 -0.00199987 -0.00559964 -0.00219986 -0.00559964 -0.00249984 -0.00539965 -0.00279982 -0.00519967 -0.00299981 -0.00509967 -0.00329979 -0.00489968 -0.00339978 -0.0046997 -0.00379976 -0.00449971 -0.00389975 -0.00439972 -0.00409974 -0.00409974 -0.00439972 -0.00389975 -0.00449971 -0.00379976 -0.0046997 -0.00339978 -0.00489968 -0.00329979 -0.00509967 -0.00299981 -0.00519967 -0.00279982 -0.00539965 -0.00249984 -0.00559964 -0.00219986 -0.00559964 -0.00199987 -0.00579963 -0.00169989 -0.00599961 -0.00139991 -0.00599961 -0.00109993 -0.0061996 -0.000799948 -0.0061996 -0.000399974 -0.00639959 -0.000199987 -0.00639959zm1.5601 0l-0.124992 0.124992 -1.31012 0 0 -0.249984 1.31012 0 0.124992 0.124992zm-0.124992 0.124992l0 -0.249984 0.00639959 0.000199987 0.00639959 0.000399974 0.0061996 0.000799948 0.0061996 0.00109993 0.00599961 0.00139991 0.00599961 0.00169989 0.00579963 0.00199987 0.00559964 0.00219986 0.00559964 0.00249984 0.00539965 0.00279982 0.00519967 0.00299981 0.00509967 0.00329979 0.00489968 0.00339978 0.0046997 0.00379976 0.00449971 0.00389975 0.00439972 0.00409974 0.00409974 0.00439972 0.00389975 0.00449971 0.00379976 0.0046997 0.00339978 0.00489968 0.00329979 0.00509967 0.00299981 0.00519967 0.00279982 0.00539965 0.00249984 0.00559964 0.00219986 0.00559964 0.00199987 0.00579963 0.00169989 0.00599961 0.00139991 0.00599961 0.00109993 0.0061996 0.000799948 0.0061996 0.000399974 0.00639959 0.000199987 0.00639959 -0.000199987 0.00639959 -0.000399974 0.00639959 -0.000799948 0.0061996 -0.00109993 0.0061996 -0.00139991 0.00599961 -0.00169989 0.00599961 -0.00199987 0.00579963 -0.00219986 0.00559964 -0.00249984 0.00559964 -0.00279982 0.00539965 -0.00299981 0.00519967 -0.00329979 0.00509967 -0.00339978 0.00489968 -0.00379976 0.0046997 -0.00389975 0.00449971 -0.00409974 0.00439972 -0.00439972 0.00409974 -0.00449971 0.00389975 -0.0046997 0.00379976 -0.00489968 0.00339978 -0.00509967 0.00329979 -0.00519967 0.00299981 -0.00539965 0.00279982 -0.00559964 0.00249984 -0.00559964 0.00219986 -0.00579963 0.00199987 -0.00599961 0.00169989 -0.00599961 0.00139991 -0.0061996 0.00109993 -0.0061996 0.000799948 -0.00639959 0.000399974 -0.00639959 0.000199987zm0 3.85205l-0.124992 -0.124992 0 -3.85205 0.249984 0 0 3.85205 -0.124992 0.124992zm-0.124992 -0.124992l0.249984 0 -0.000199987 0.00639959 -0.000399974 0.00639959 -0.000799948 0.0061996 -0.00109993 0.0061996 -0.00139991 0.00599961 -0.00169989 0.00599961 -0.00199987 0.00579963 -0.00219986 0.00559964 -0.00249984 0.00559964 -0.00279982 0.00539965 -0.00299981 0.00519967 -0.00329979 0.00509967 -0.00339978 0.00489968 -0.00379976 0.0046997 -0.00389975 0.00449971 -0.00409974 0.00439972 -0.00439972 0.00409974 -0.00449971 0.00389975 -0.0046997 0.00379976 -0.00489968 0.00339978 -0.00509967 0.00329979 -0.00519967 0.00299981 -0.00539965 0.00279982 -0.00559964 0.00249984 -0.00559964 0.00219986 -0.00579963 0.00199987 -0.00599961 0.00169989 -0.00599961 0.00139991 -0.0061996 0.00109993 -0.0061996 0.000799948 -0.00639959 0.000399974 -0.00639959 0.000199987 -0.00639959 -0.000199987 -0.00639959 -0.000399974 -0.0061996 -0.000799948 -0.0061996 -0.00109993 -0.00599961 -0.00139991 -0.00599961 -0.00169989 -0.00579963 -0.00199987 -0.00559964 -0.00219986 -0.00559964 -0.00249984 -0.00539965 -0.00279982 -0.00519967 -0.00299981 -0.00509967 -0.00329979 -0.00489968 -0.00339978 -0.0046997 -0.00379976 -0.00449971 -0.00389975 -0.00439972 -0.00409974 -0.00409974 -0.00439972 -0.00389975 -0.00449971 -0.00379976 -0.0046997 -0.00339978 -0.00489968 -0.00329979 -0.00509967 -0.00299981 -0.00519967 -0.00279982 -0.00539965 -0.00249984 -0.00559964 -0.00219986 -0.00559964 -0.00199987 -0.00579963 -0.00169989 -0.00599961 -0.00139991 -0.00599961 -0.00109993 -0.0061996 -0.000799948 -0.0061996 -0.000399974 -0.00639959 -0.000199987 -0.00639959zm1.81298 0l-0.124992 0.124992 -1.563 0 0 -0.249984 1.563 0 0.124992 0.124992zm-0.124992 0.124992l0 -0.249984 0.00639959 0.000199987 0.00639959 0.000399974 0.0061996 0.000799948 0.0061996 0.00109993 0.00599961 0.00139991 0.00599961 0.00169989 0.00579963 0.00199987 0.00559964 0.00219986 0.00559964 0.00249984 0.00539965 0.00279982 0.00519967 0.00299981 0.00509967 0.00329979 0.00489968 0.00339978 0.0046997 0.00379976 0.00449971 0.00389975 0.00439972 0.00409974 0.00409974 0.00439972 0.00389975 0.00449971 0.00379976 0.0046997 0.00339978 0.00489968 0.00329979 0.00509967 0.00299981 0.00519967 0.00279982 0.00539965 0.00249984 0.00559964 0.00219986 0.00559964 0.00199987 0.00579963 0.00169989 0.00599961 0.00139991 0.00599961 0.00109993 0.0061996 0.000799948 0.0061996 0.000399974 0.00639959 0.000199987 0.00639959 -0.000199987 0.00639959 -0.000399974 0.00639959 -0.000799948 0.0061996 -0.00109993 0.0061996 -0.00139991 0.00599961 -0.00169989 0.00599961 -0.00199987 0.00579963 -0.00219986 0.00559964 -0.00249984 0.00559964 -0.00279982 0.00539965 -0.00299981 0.00519967 -0.00329979 0.00509967 -0.00339978 0.00489968 -0.00379976 0.0046997 -0.00389975 0.00449971 -0.00409974 0.00439972 -0.00439972 0.00409974 -0.00449971 0.00389975 -0.0046997 0.00379976 -0.00489968 0.00339978 -0.00509967 0.00329979 -0.00519967 0.00299981 -0.00539965 0.00279982 -0.00559964 0.00249984 -0.00559964 0.00219986 -0.00579963 0.00199987 -0.00599961 0.00169989 -0.00599961 0.00139991 -0.0061996 0.00109993 -0.0061996 0.000799948 -0.00639959 0.000399974 -0.00639959 0.000199987zm0 -4.11144l0.124992 0.124992 0 3.86145 -0.249984 0 0 -3.86145 0.124992 -0.124992zm0.124992 0.124992l-0.249984 0 0.000199987 -0.00639959 0.000399974 -0.00639959 0.000799948 -0.0061996 0.00109993 -0.0061996 0.00139991 -0.00599961 0.00169989 -0.00599961 0.00199987 -0.00579963 0.00219986 -0.00559964 0.00249984 -0.00559964 0.00279982 -0.00539965 0.00299981 -0.00519967 0.00329979 -0.00509967 0.00339978 -0.00489968 0.00379976 -0.0046997 0.00389975 -0.00449971 0.00409974 -0.00439972 0.00439972 -0.00409974 0.00449971 -0.00389975 0.0046997 -0.00379976 0.00489968 -0.00339978 0.00509967 -0.00329979 0.00519967 -0.00299981 0.00539965 -0.00279982 0.00559964 -0.00249984 0.00559964 -0.00219986 0.00579963 -0.00199987 0.00599961 -0.00169989 0.00599961 -0.00139991 0.0061996 -0.00109993 0.0061996 -0.000799948 0.00639959 -0.000399974 0.00639959 -0.000199987 0.00639959 0.000199987 0.00639959 0.000399974 0.0061996 0.000799948 0.0061996 0.00109993 0.00599961 0.00139991 0.00599961 0.00169989 0.00579963 0.00199987 0.00559964 0.00219986 0.00559964 0.00249984 0.00539965 0.00279982 0.00519967 0.00299981 0.00509967 0.00329979 0.00489968 0.00339978 0.0046997 0.00379976 0.00449971 0.00389975 0.00439972 0.00409974 0.00409974 0.00439972 0.00389975 0.00449971 0.00379976 0.0046997 0.00339978 0.00489968 0.00329979 0.00509967 0.00299981 0.00519967 0.00279982 0.00539965 0.00249984 0.00559964 0.00219986 0.00559964 0.00199987 0.00579963 0.00169989 0.00599961 0.00139991 0.00599961 0.00109993 0.0061996 0.000799948 0.0061996 0.000399974 0.00639959 0.000199987 0.00639959zm1.28472 0.015099l-0.123992 0.109893 -1.28572 0 0 -0.249984 1.28572 0 0.123992 0.140091zm-0.123992 0.109893l0 -0.249984 0.00639959 0.000199987 0.00639959 0.000399974 0.0061996 0.000799948 0.0061996 0.00109993 0.00599961 0.00139991 0.00599961 0.00169989 0.00579963 0.00199987 0.00559964 0.00219986 0.00559964 0.00249984 0.00539965 0.00279982 0.00519967 0.00299981 0.00509967 0.00329979 0.00489968 0.00339978 0.0046997 0.00379976 0.00449971 0.00389975 0.00439972 0.00409974 0.00409974 0.00439972 0.00389975 0.00449971 0.00379976 0.0046997 0.00339978 0.00489968 0.00329979 0.00509967 0.00299981 0.00519967 0.00279982 0.00539965 0.00249984 0.00559964 0.00219986 0.00559964 0.00199987 0.00579963 0.00169989 0.00599961 0.00139991 0.00599961 0.00109993 0.0061996 0.000799948 0.0061996 0.000399974 0.00639959 0.000199987 0.00639959 -0.000199987 0.00639959 -0.000399974 0.00639959 -0.000799948 0.0061996 -0.00109993 0.0061996 -0.00139991 0.00599961 -0.00169989 0.00599961 -0.00199987 0.00579963 -0.00219986 0.00559964 -0.00249984 0.00559964 -0.00279982 0.00539965 -0.00299981 0.00519967 -0.00329979 0.00509967 -0.00339978 0.00489968 -0.00379976 0.0046997 -0.00389975 0.00449971 -0.00409974 0.00439972 -0.00439972 0.00409974 -0.00449971 0.00389975 -0.0046997 0.00379976 -0.00489968 0.00339978 -0.00509967 0.00329979 -0.00519967 0.00299981 -0.00539965 0.00279982 -0.00559964 0.00249984 -0.00559964 0.00219986 -0.00579963 0.00199987 -0.00599961 0.00169989 -0.00599961 0.00139991 -0.0061996 0.00109993 -0.0061996 0.000799948 -0.00639959 0.000399974 -0.00639959 0.000199987zm0.186488 -1.74779l0.123992 0.140091 -0.186488 1.4978 -0.247984 -0.0301981 0.186488 -1.4978 0.123992 -0.109893zm0.123992 0.140091l-0.247984 -0.0301981 0.000899942 -0.00639959 0.00129992 -0.0061996 0.0014999 -0.00609961 0.00189988 -0.00599961 0.00209986 -0.00579963 0.00239985 -0.00569963 0.00259983 -0.00549965 0.00289981 -0.00529966 0.00319979 -0.00519967 0.00339978 -0.00499968 0.00359977 -0.00489968 0.00379976 -0.0045997 0.00409974 -0.00439972 0.00419973 -0.00429972 0.00449971 -0.00399974 0.0045997 -0.00379976 0.00479969 -0.00359977 0.00499968 -0.00329979 0.00509967 -0.00319979 0.00529966 -0.00279982 0.00539965 -0.00259983 0.00559964 -0.00239985 0.00569963 -0.00209986 0.00579963 -0.00179988 0.00589962 -0.0014999 0.00599961 -0.00129992 0.00609961 -0.000999936 0.00609961 -0.000599961 0.00629959 -0.000399974 0.00629959 0 0.00629959 0.000299981 0.00639959 0.000599961 0.00639959 0.000899942 0.0061996 0.00129992 0.00609961 0.0014999 0.00599961 0.00189988 0.00579963 0.00209986 0.00569963 0.00239985 0.00549965 0.00259983 0.00529966 0.00289981 0.00519967 0.00319979 0.00499968 0.00339978 0.00489968 0.00359977 0.0045997 0.00379976 0.00439972 0.00409974 0.00429972 0.00419973 0.00399974 0.00449971 0.00379976 0.0045997 0.00359977 0.00479969 0.00329979 0.00499968 0.00319979 0.00509967 0.00279982 0.00529966 0.00259983 0.00539965 0.00239985 0.00559964 0.00209986 0.00569963 0.00179988 0.00579963 0.0014999 0.00589962 0.00129992 0.00599961 0.000999936 0.00609961 0.000599961 0.00609961 0.000399974 0.00629959 0 0.00629959 -0.000299981 0.00629959 -0.000599961 0.00639959zm-1.5818 -0.140091l0 0 1.45781 0 0 0.249984 -1.45781 0 0 -0.249984zm0 0l0 0.249984 -0.00639959 -0.000199987 -0.00639959 -0.000399974 -0.0061996 -0.000799948 -0.0061996 -0.00109993 -0.00599961 -0.00139991 -0.00599961 -0.00169989 -0.00579963 -0.00199987 -0.00559964 -0.00219986 -0.00559964 -0.00249984 -0.00539965 -0.00279982 -0.00519967 -0.00299981 -0.00509967 -0.00329979 -0.00489968 -0.00339978 -0.0046997 -0.00379976 -0.00449971 -0.00389975 -0.00439972 -0.00409974 -0.00409974 -0.00439972 -0.00389975 -0.00449971 -0.00379976 -0.0046997 -0.00339978 -0.00489968 -0.00329979 -0.00509967 -0.00299981 -0.00519967 -0.00279982 -0.00539965 -0.00249984 -0.00559964 -0.00219986 -0.00559964 -0.00199987 -0.00579963 -0.00169989 -0.00599961 -0.00139991 -0.00599961 -0.00109993 -0.0061996 -0.000799948 -0.0061996 -0.000399974 -0.00639959 -0.000199987 -0.00639959 0.000199987 -0.00639959 0.000399974 -0.00639959 0.000799948 -0.0061996 0.00109993 -0.0061996 0.00139991 -0.00599961 0.00169989 -0.00599961 0.00199987 -0.00579963 0.00219986 -0.00559964 0.00249984 -0.00559964 0.00279982 -0.00539965 0.00299981 -0.00519967 0.00329979 -0.00509967 0.00339978 -0.00489968 0.00379976 -0.0046997 0.00389975 -0.00449971 0.00409974 -0.00439972 0.00439972 -0.00409974 0.00449971 -0.00389975 0.0046997 -0.00379976 0.00489968 -0.00339978 0.00509967 -0.00329979 0.00519967 -0.00299981 0.00539965 -0.00279982 0.00559964 -0.00249984 0.00559964 -0.00219986 0.00579963 -0.00199987 0.00599961 -0.00169989 0.00599961 -0.00139991 0.0061996 -0.00109993 0.0061996 -0.000799948 0.00639959 -0.000399974 0.00639959 -0.000199987zm-0.127492 0.124992l0.124992 -0.124992 0.00249984 0 0 0.249984 -0.00249984 0 -0.124992 -0.124992zm0.124992 -0.124992l0 0.249984 -0.00639959 -0.000199987 -0.00639959 -0.000399974 -0.0061996 -0.000799948 -0.0061996 -0.00109993 -0.00599961 -0.00139991 -0.00599961 -0.00169989 -0.00579963 -0.00199987 -0.00559964 -0.00219986 -0.00559964 -0.00249984 -0.00539965 -0.00279982 -0.00519967 -0.00299981 -0.00509967 -0.00329979 -0.00489968 -0.00339978 -0.0046997 -0.00379976 -0.00449971 -0.00389975 -0.00439972 -0.00409974 -0.00409974 -0.00439972 -0.00389975 -0.00449971 -0.00379976 -0.0046997 -0.00339978 -0.00489968 -0.00329979 -0.00509967 -0.00299981 -0.00519967 -0.00279982 -0.00539965 -0.00249984 -0.00559964 -0.00219986 -0.00559964 -0.00199987 -0.00579963 -0.00169989 -0.00599961 -0.00139991 -0.00599961 -0.00109993 -0.0061996 -0.000799948 -0.0061996 -0.000399974 -0.00639959 -0.000199987 -0.00639959 0.000199987 -0.00639959 0.000399974 -0.00639959 0.000799948 -0.0061996 0.00109993 -0.0061996 0.00139991 -0.00599961 0.00169989 -0.00599961 0.00199987 -0.00579963 0.00219986 -0.00559964 0.00249984 -0.00559964 0.00279982 -0.00539965 0.00299981 -0.00519967 0.00329979 -0.00509967 0.00339978 -0.00489968 0.00379976 -0.0046997 0.00389975 -0.00449971 0.00409974 -0.00439972 0.00439972 -0.00409974 0.00449971 -0.00389975 0.0046997 -0.00379976 0.00489968 -0.00339978 0.00509967 -0.00329979 0.00519967 -0.00299981 0.00539965 -0.00279982 0.00559964 -0.00249984 0.00559964 -0.00219986 0.00579963 -0.00199987 0.00599961 -0.00169989 0.00599961 -0.00139991 0.0061996 -0.00109993 0.0061996 -0.000799948 0.00639959 -0.000399974 0.00639959 -0.000199987zm0.124992 -0.969138l0 0 0 1.09413 -0.249984 0 0 -1.09413 0.249984 0zm0.456871 -0.706854l0 0.249984 0 0 -0.0238985 0.000299981 -0.0231985 0.00169989 -0.0221986 0.00269983 -0.0226985 0.00429972 -0.0217986 0.00499968 -0.0215986 0.00639959 -0.0210986 0.00729953 -0.0210986 0.00789949 -0.0198987 0.0092994 -0.0196987 0.00999936 -0.0189988 0.0110993 -0.0186988 0.0121992 -0.0179988 0.0123992 -0.0170989 0.0138991 -0.0166989 0.0143991 -0.015799 0.015499 -0.015499 0.015799 -0.0143991 0.0166989 -0.0138991 0.0170989 -0.0123992 0.0179988 -0.0121992 0.0186988 -0.0110993 0.0189988 -0.00999936 0.0196987 -0.0092994 0.0198987 -0.00789949 0.0210986 -0.00729953 0.0210986 -0.00639959 0.0216986 -0.00499968 0.0216986 -0.00429972 0.0226985 -0.00269983 0.0221986 -0.00169989 0.0231985 -0.000299981 0.0238985 -0.249984 0 0.00129992 -0.0356977 0.00269983 -0.0357977 0.0046997 -0.0357977 0.00609961 -0.0344978 0.00799948 -0.0344978 0.00939939 -0.0332979 0.0110993 -0.0328979 0.0128992 -0.031698 0.0140991 -0.031698 0.015799 -0.030498 0.0170989 -0.0295981 0.0179988 -0.0284982 0.0201987 -0.0277982 0.0206987 -0.0268983 0.0221986 -0.0254984 0.0232985 -0.0245984 0.0245984 -0.0232985 0.0254984 -0.0221986 0.0268983 -0.0206987 0.0277982 -0.0201987 0.0284982 -0.0179988 0.0295981 -0.0170989 0.030498 -0.015799 0.031698 -0.0140991 0.031698 -0.0128992 0.0328979 -0.0110993 0.0333978 -0.00939939 0.0343978 -0.00799948 0.0344978 -0.00609961 0.0357977 -0.0046997 0.0357977 -0.00269983 0.0356977 -0.00129992 0 0zm1.06523 0.124992l-0.124992 0.124992 -0.940239 0 0 -0.249984 0.940239 0 0.124992 0.124992zm-0.124992 0.124992l0 -0.249984 0.00639959 0.000199987 0.00639959 0.000399974 0.0061996 0.000799948 0.0061996 0.00109993 0.00599961 0.00139991 0.00599961 0.00169989 0.00579963 0.00199987 0.00559964 0.00219986 0.00559964 0.00249984 0.00539965 0.00279982 0.00519967 0.00299981 0.00509967 0.00329979 0.00489968 0.00339978 0.0046997 0.00379976 0.00449971 0.00389975 0.00439972 0.00409974 0.00409974 0.00439972 0.00389975 0.00449971 0.00379976 0.0046997 0.00339978 0.00489968 0.00329979 0.00509967 0.00299981 0.00519967 0.00279982 0.00539965 0.00249984 0.00559964 0.00219986 0.00559964 0.00199987 0.00579963 0.00169989 0.00599961 0.00139991 0.00599961 0.00109993 0.0061996 0.000799948 0.0061996 0.000399974 0.00639959 0.000199987 0.00639959 -0.000199987 0.00639959 -0.000399974 0.00639959 -0.000799948 0.0061996 -0.00109993 0.0061996 -0.00139991 0.00599961 -0.00169989 0.00599961 -0.00199987 0.00579963 -0.00219986 0.00559964 -0.00249984 0.00559964 -0.00279982 0.00539965 -0.00299981 0.00519967 -0.00329979 0.00509967 -0.00339978 0.00489968 -0.00379976 0.0046997 -0.00389975 0.00449971 -0.00409974 0.00439972 -0.00439972 0.00409974 -0.00449971 0.00389975 -0.0046997 0.00379976 -0.00489968 0.00339978 -0.00509967 0.00329979 -0.00519967 0.00299981 -0.00539965 0.00279982 -0.00559964 0.00249984 -0.00559964 0.00219986 -0.00579963 0.00199987 -0.00599961 0.00169989 -0.00599961 0.00139991 -0.0061996 0.00109993 -0.0061996 0.000799948 -0.00639959 0.000399974 -0.00639959 0.000199987zm0.0912941 -0.0371976l-0.216286 -0.0849945 0 -0.00279982 0.249984 0 0 0.00279982 -0.0336978 0.0849945zm-0.216286 -0.0849945l0.249984 0 -0.000199987 0.00639959 -0.000399974 0.00639959 -0.000799948 0.0061996 -0.00109993 0.0061996 -0.00139991 0.00599961 -0.00169989 0.00599961 -0.00199987 0.00579963 -0.00219986 0.00559964 -0.00249984 0.00559964 -0.00279982 0.00539965 -0.00299981 0.00519967 -0.00329979 0.00509967 -0.00339978 0.00489968 -0.00379976 0.0046997 -0.00389975 0.00449971 -0.00409974 0.00439972 -0.00439972 0.00409974 -0.00449971 0.00389975 -0.0046997 0.00379976 -0.00489968 0.00339978 -0.00509967 0.00329979 -0.00519967 0.00299981 -0.00539965 0.00279982 -0.00559964 0.00249984 -0.00559964 0.00219986 -0.00579963 0.00199987 -0.00599961 0.00169989 -0.00599961 0.00139991 -0.0061996 0.00109993 -0.0061996 0.000799948 -0.00639959 0.000399974 -0.00639959 0.000199987 -0.00639959 -0.000199987 -0.00639959 -0.000399974 -0.0061996 -0.000799948 -0.0061996 -0.00109993 -0.00599961 -0.00139991 -0.00599961 -0.00169989 -0.00579963 -0.00199987 -0.00559964 -0.00219986 -0.00559964 -0.00249984 -0.00539965 -0.00279982 -0.00519967 -0.00299981 -0.00509967 -0.00329979 -0.00489968 -0.00339978 -0.0046997 -0.00379976 -0.00449971 -0.00389975 -0.00439972 -0.00409974 -0.00409974 -0.00439972 -0.00389975 -0.00449971 -0.00379976 -0.0046997 -0.00339978 -0.00489968 -0.00329979 -0.00509967 -0.00299981 -0.00519967 -0.00279982 -0.00539965 -0.00249984 -0.00559964 -0.00219986 -0.00559964 -0.00199987 -0.00579963 -0.00169989 -0.00599961 -0.00139991 -0.00599961 -0.00109993 -0.0061996 -0.000799948 -0.0061996 -0.000399974 -0.00639959 -0.000199987 -0.00639959zm0.252084 -0.00519967l-0.0331979 0.0873944 -0.00259983 0.00279982 -0.182588 -0.169989 0.00259983 -0.00279982 0.215786 0.0825947zm-0.0331979 0.0873944l-0.182588 -0.169989 0.00449971 -0.0045997 0.0046997 -0.00429972 0.00479969 -0.00399974 0.00499968 -0.00379976 0.00509967 -0.00339978 0.00529966 -0.00319979 0.00539965 -0.00289981 0.00539965 -0.00259983 0.00559964 -0.00239985 0.00569963 -0.00199987 0.00579963 -0.00179988 0.00579963 -0.0014999 0.00589962 -0.00119992 0.00589962 -0.000899942 0.00599961 -0.000699955 0.00589962 -0.000299981 0.00599961 -9.99936e-005 0.00599961 0.000199987 0.00599961 0.000499968 0.00589962 0.000799948 0.00599961 0.00109993 0.00579963 0.00129992 0.00579963 0.00169989 0.00579963 0.00189988 0.00569963 0.00219986 0.00549965 0.00249984 0.00549965 0.00279982 0.00539965 0.0030998 0.00519967 0.00339978 0.00509967 0.00369976 0.00499968 0.00389975 0.00479969 0.00429972 0.0045997 0.00449971 0.00429972 0.0046997 0.00399974 0.00479969 0.00379976 0.00499968 0.00339978 0.00509967 0.00319979 0.00529966 0.00289981 0.00539965 0.00259983 0.00539965 0.00239985 0.00559964 0.00199987 0.00569963 0.00179988 0.00579963 0.0014999 0.00579963 0.00119992 0.00589962 0.000899942 0.00589962 0.000699955 0.00599961 0.000299981 0.00589962 9.99936e-005 0.00599961 -0.000199987 0.00599961 -0.000499968 0.00599961 -0.000799948 0.00589962 -0.00109993 0.00599961 -0.00129992 0.00579963 -0.00169989 0.00579963 -0.00189988 0.00579963 -0.00219986 0.00569963 -0.00249984 0.00549965 -0.00279982 0.00549965 -0.0030998 0.00539965 -0.00339978 0.00519967 -0.00369976 0.00509967 -0.00389975 0.00499968 -0.00429972 0.00479969z"/>
   <path id="1" class="fil1" d="M4.53471 1.5553l-0.0291981 -1.35951c-2.63223,-0.384175 -3.24799,0.805748 -3.0774,3.0354l-1.30312 -9.99936e-005 0 1.5074 1.31012 0 0 3.85205 1.563 0 0 -3.86145 1.28572 0 0.186488 -1.4978 -1.45781 0 -0.00249984 0 0 -1.09413c0,-0.319979 0.261883,-0.581863 0.581863,-0.581863l0.940239 0 0 0.00279982 0.00259983 -0.00279982z"/>
  </g>
 </g>
</svg>
