<?xml version="1.0" encoding="UTF-8"?>
<!DOCTYPE svg PUBLIC "-//W3C//DTD SVG 1.1//EN" "http://www.w3.org/Graphics/SVG/1.1/DTD/svg11.dtd">
<!-- Creator: CorelDRAW -->
<svg xmlns="http://www.w3.org/2000/svg" xml:space="preserve" width="9.2728mm" height="7.1329mm" style="shape-rendering:geometricPrecision; text-rendering:geometricPrecision; image-rendering:optimizeQuality; fill-rule:evenodd; clip-rule:evenodd"
viewBox="0 0 9.13644 7.028"
 xmlns:xlink="http://www.w3.org/1999/xlink">
 <defs>
  <style type="text/css">
   <![CDATA[
    .fil1 {fill:white}
    .fil0 {fill:#0A0B0C;fill-rule:nonzero}
   ]]>
  </style>
 </defs>
 <g id="Layer_x0020_1">
  <metadata id="CorelCorpID_0Corel-Layer"/>
  <g>
   <path class="fil0" d="M7.47336 0.549794l0.0530088 0.239624 -0.111141 -0.0308397 -0.125526 -0.11055 -0.12661 -0.0958691 -0.128581 -0.0815824 -0.129074 -0.0676897 -0.129763 -0.0548809 -0.129566 -0.0419735 -0.129566 -0.0298544 -0.128581 -0.0185235 -0.127596 -0.00729118 -0.126807 0.00374412 -0.124246 0.0139912 -0.122275 0.0237456 -0.119024 0.0330074 -0.115969 0.0422691 -0.112718 0.0512353 -0.108087 0.0596103 -0.103456 0.0676897 -0.0981353 0.0745868 -0.0925191 0.0821735 -0.0862132 0.0883809 -0.0791191 0.0949824 -0.0722221 0.100106 -0.0645368 0.105525 -0.0561618 0.110451 -0.0473926 0.115181 -0.0386235 0.118629 -0.0287706 0.122571 -0.0190162 0.125625 -0.00857206 0.128187 0.00285735 0.13134 0.0141882 0.133409 0.0261103 0.13469 -0.239624 0.0567529 -0.0298544 -0.155775 -0.0161588 -0.153706 -0.00285735 -0.15144 0.00955735 -0.149469 0.021775 -0.145725 0.0336971 -0.141882 0.0443382 -0.137941 0.0550779 -0.132522 0.0648324 -0.127596 0.0741926 -0.121881 0.0828632 -0.115674 0.0915338 -0.108382 0.098825 -0.101781 0.105919 -0.0938 0.112521 -0.0862132 0.118826 -0.0771485 0.124443 -0.0682809 0.129074 -0.0589206 0.134296 -0.0491662 0.138335 -0.0387221 0.14139 -0.0274897 0.144543 -0.0159618 0.146119 -0.00374412 0.148681 0.00827647 0.149666 0.0212824 0.149863 0.0347809 0.149863 0.0486735 0.148878 0.0625662 0.1474 0.0773456 0.144937 0.0922235 0.142966 0.107299 0.138926 0.123162 -0.111141 -0.0308397zm0.0530088 0.239624l-0.0638471 0.0141882 -0.0472941 -0.0450279 0.111141 0.0308397zm1.17349 -0.49176l-0.232924 -0.0780353 0.175678 0.146809 -0.0335 0.0181294 -0.0336971 0.0179324 -0.0336971 0.0174397 -0.0336971 0.0172426 -0.0338941 0.0169471 -0.0338941 0.0166515 -0.0340912 0.0162574 -0.0340912 0.0160603 -0.0340912 0.0156662 -0.0342882 0.0153706 -0.0343868 0.0149765 -0.0344853 0.0147794 -0.0349779 0.0138926 -0.0340912 0.0140897 -0.0346824 0.0138926 -0.0353721 0.0134985 -0.0347809 0.0132029 -0.0349779 0.0123162 -0.0349779 0.0126118 -0.035175 0.0122176 -0.0350765 0.0119221 -0.0358647 0.0111338 -0.0353721 0.0112324 -0.0354706 0.0109368 -0.0354706 0.0102471 -0.0361603 0.0103456 -0.0357662 0.01005 -0.0357662 0.00916324 -0.0358647 0.00945882 -0.0364559 0.00857206 -0.0360618 0.00876912 -0.0360618 0.00798088 -0.0530088 -0.239624 0.0342882 -0.00798088 0.0340912 -0.00778382 0.0335 -0.00857206 0.0340912 -0.00847353 0.0337956 -0.00916324 0.0337956 -0.00906471 0.0332044 -0.00936029 0.0336971 -0.0102471 0.0335 -0.00995147 0.0334015 -0.0104441 0.0329088 -0.0111338 0.0333029 -0.0109368 0.0332044 -0.0112324 0.0330074 -0.0116265 0.0330074 -0.0123162 0.0330074 -0.0122176 0.0324162 -0.0125132 0.0327118 -0.0129074 0.0331059 -0.0131044 0.0322191 -0.0138926 0.0325147 -0.0137941 0.0324162 -0.0141882 0.0323176 -0.0143853 0.0323176 -0.0146809 0.0321206 -0.015075 0.0321206 -0.0152721 0.0319235 -0.0156662 0.0319235 -0.0159618 0.0319235 -0.0162574 0.0317265 -0.0166515 0.0317265 -0.0169471 0.0315294 -0.0171441 0.175678 0.146809zm-0.175678 -0.146809l0.274996 -0.150849 -0.0993176 0.297657 -0.175678 -0.146809zm-0.692662 0.922925l0.0307412 0.243368 -0.0841441 -0.223169 0.0294603 -0.0203956 0.0291647 -0.0207897 0.0282779 -0.0210853 0.0281794 -0.0210853 0.0278838 -0.0216765 0.0268985 -0.0224647 0.0268985 -0.0224647 0.0260118 -0.0230559 0.0259132 -0.0228588 0.0250265 -0.0239426 0.0249279 -0.0244353 0.0240412 -0.0244353 0.0233515 -0.0250265 0.02345 -0.0255191 0.0223662 -0.0261103 0.0222676 -0.0266029 0.021775 -0.0272926 0.0206912 -0.0271941 0.0204941 -0.0283765 0.0200015 -0.028475 0.0194103 -0.0290662 0.0183265 -0.0296574 0.0180309 -0.0303471 0.0174397 -0.0310368 0.0173412 -0.0315294 0.0162574 -0.0323176 0.0154691 -0.0329088 0.0152721 -0.0331059 0.0146809 -0.0343868 0.0138926 -0.0344853 0.0132029 -0.0357662 0.0124147 -0.0364559 0.232924 0.0780353 -0.0143853 0.0411853 -0.0151735 0.0404956 -0.0158632 0.0403971 -0.0164544 0.0391162 -0.0172426 0.0388206 -0.018425 0.0378353 -0.0190162 0.0370471 -0.0193118 0.0364559 -0.0203956 0.0357662 -0.0209868 0.0350765 -0.0220706 0.0345838 -0.0223662 0.0337956 -0.0227603 0.0334015 -0.02345 0.0321206 -0.0246324 0.0321206 -0.0245338 0.0310368 -0.0252235 0.0305441 -0.0261103 0.0298544 -0.0264059 0.0294603 -0.0272926 0.0287706 -0.0277853 0.0283765 -0.0278838 0.0271941 -0.0287706 0.0268985 -0.0288691 0.0268 -0.0297559 0.0258147 -0.0298544 0.0254206 -0.0308397 0.0244353 -0.0306426 0.0244353 -0.0311353 0.0240412 -0.0320221 0.0230559 -0.0321206 0.0227603 -0.0324162 0.0221691 -0.0841441 -0.223169zm0.0307412 0.243368l-0.510481 0.0655221 0.426337 -0.288691 0.0841441 0.223169zm1.04865 -0.320024l-0.206912 -0.131832 0.154888 0.17755 -0.0307412 0.0138926 -0.0309382 0.0134 -0.0305441 0.0134985 -0.0309382 0.0127103 -0.0306426 0.0124147 -0.0311353 0.0120206 -0.0311353 0.0116265 -0.0312338 0.0112324 -0.0308397 0.0109368 -0.0312338 0.0101485 -0.0309382 0.0102471 -0.0314309 0.00985294 -0.0309382 0.00955735 -0.0314309 0.00886765 -0.0310368 0.00896618 -0.0315294 0.00867059 -0.0310368 0.008375 -0.0316279 0.00748824 -0.0311353 0.00778382 -0.0312338 0.00699559 -0.0310368 0.00729118 -0.0312338 0.00640441 -0.0312338 0.0067 -0.031825 0.00591176 -0.0311353 0.00561618 -0.0312338 0.00581324 -0.0313324 0.00512353 -0.0307412 0.00492647 -0.0312338 0.00522206 -0.031825 0.00443382 -0.0307412 0.00413824 -0.0313324 0.00403971 -0.0307412 -0.243368 0.0293618 -0.00403971 0.0297559 -0.00413824 0.0288691 -0.00443382 0.0294603 -0.00423676 0.0297559 -0.00492647 0.0293618 -0.00512353 0.0292632 -0.005025 0.0293618 -0.00561618 0.0288691 -0.00591176 0.0292632 -0.00571471 0.0292632 -0.00640441 0.0292632 -0.00630588 0.0292632 -0.00699559 0.0291647 -0.00679853 0.0286721 -0.00748824 0.0292632 -0.00738971 0.0285735 -0.00768529 0.0290662 -0.00798088 0.0286721 -0.00886765 0.0289676 -0.00857206 0.028475 -0.00906471 0.0289676 -0.00926176 0.028475 -0.0101485 0.0288691 -0.00995147 0.0282779 -0.0102471 0.0283765 -0.0106412 0.0281794 -0.0110353 0.0286721 -0.0114294 0.0281794 -0.011725 0.0285735 -0.011725 0.0279824 -0.0124147 0.0279824 -0.0129074 0.154888 0.17755zm-0.154888 -0.17755l0.380422 -0.175678 -0.225534 0.353228 -0.154888 -0.17755zm-0.675321 0.99495l-0.245338 0.00394118 0.048575 -0.100106 0.0307412 -0.0232529 0.0299529 -0.0229574 0.0298544 -0.0238441 0.0299529 -0.0238441 0.0292632 -0.0236471 0.0289676 -0.0243368 0.0286721 -0.0240412 0.0289676 -0.0248294 0.0281794 -0.0246324 0.0277853 -0.0248294 0.0275882 -0.0255191 0.0272926 -0.0252235 0.0269971 -0.0255191 0.0266029 -0.0259132 0.0263074 -0.0261103 0.0259132 -0.0263074 0.0258147 -0.0266029 0.0252235 -0.0269971 0.0250265 -0.0271941 0.0246324 -0.0274897 0.0243368 -0.0271941 0.0238441 -0.0281794 0.0235485 -0.0278838 0.0231544 -0.0286721 0.0229574 -0.0285735 0.0223662 -0.0288691 0.0219721 -0.0296574 0.0216765 -0.0295588 0.0211838 -0.0298544 0.0208882 -0.0300515 0.0203956 -0.0306426 0.0200015 -0.0308397 0.206912 0.131832 -0.0219721 0.0337956 -0.0223662 0.0334015 -0.0226618 0.0330074 -0.0231544 0.0328103 -0.0236471 0.0323176 -0.0239426 0.0316279 -0.0243368 0.031825 -0.0247309 0.0313324 -0.025125 0.0306426 -0.0255191 0.0308397 -0.0258147 0.0299529 -0.0261103 0.03015 -0.0266029 0.0294603 -0.0269971 0.0291647 -0.0271941 0.0287706 -0.0275882 0.0285735 -0.0278838 0.0282779 -0.0282779 0.0280809 -0.0285735 0.0276868 -0.0289676 0.0274897 -0.0290662 0.0271941 -0.0295588 0.0265044 -0.0297559 0.0268 -0.03015 0.0264059 -0.0297559 0.0258147 -0.0306426 0.0260118 -0.0309382 0.0253221 -0.0312338 0.0256176 -0.0309382 0.0248294 -0.0316279 0.0246324 -0.0319235 0.0249279 -0.0317265 0.0242382 0.048575 -0.100106zm-0.245338 0.00394118l-0.00108382 -0.0625662 0.0496588 -0.0375397 -0.048575 0.100106zm-7.36665 4.23755l-0.0067 0.245338 0.0669015 -0.227997 0.281696 0.157746 0.289479 0.137646 0.295982 0.117841 0.300909 0.0980368 0.305146 0.0783309 0.308791 0.0589206 0.310368 0.0395103 0.311451 0.0201985 0.312141 0.00108382 0.309875 -0.0183265 0.307412 -0.0367515 0.304357 -0.0555706 0.299332 -0.0739956 0.293913 -0.0926176 0.287115 -0.110846 0.278444 -0.129172 0.270463 -0.147301 0.259724 -0.165135 0.248787 -0.182674 0.236274 -0.200704 0.223169 -0.21775 0.208882 -0.235387 0.193512 -0.253122 0.176663 -0.269774 0.159421 -0.286819 0.140799 -0.304357 0.12129 -0.321501 0.100401 -0.338251 0.0783309 -0.355691 0.0551765 -0.372146 0.0313324 -0.389388 0.00581324 -0.406926 0.245338 -0.00394118 -0.00581324 0.421509 -0.0323176 0.405744 -0.0579353 0.389487 -0.0822721 0.372047 -0.105131 0.355593 -0.127201 0.337857 -0.148484 0.320713 -0.168091 0.303175 -0.187107 0.285144 -0.204153 0.266522 -0.220509 0.248787 -0.235584 0.230362 -0.249871 0.211346 -0.262187 0.193118 -0.274109 0.173806 -0.283863 0.154987 -0.294012 0.135872 -0.3015 0.116757 -0.308299 0.0973471 -0.314703 0.0779368 -0.318743 0.0583294 -0.322979 0.0387221 -0.325246 0.0183265 -0.325541 -0.00108382 -0.326822 -0.0211838 -0.325738 -0.0414809 -0.323374 -0.0616794 -0.320516 -0.0822721 -0.316279 -0.102766 -0.310368 -0.123556 -0.303865 -0.144543 -0.296278 -0.165431 0.0669015 -0.227997zm-0.0669015 0.227997l-0.401803 -0.242481 0.468704 0.0144838 -0.0669015 0.227997zm2.55575 -0.709313l0.0220706 -0.244353 0.0654235 0.21844 -0.0700544 0.0543882 -0.0714338 0.0521221 -0.0717294 0.0499544 -0.0729118 0.0477868 -0.0737 0.0450279 -0.0745868 0.04355 -0.0750794 0.0409882 -0.0759662 0.0388206 -0.0766559 0.0369485 -0.0772471 0.0343868 -0.0780353 0.0329088 -0.0786265 0.0304456 -0.0789221 0.0286721 -0.0800059 0.0268 -0.0805971 0.0249279 -0.0813853 0.0231544 -0.0813853 0.0208882 -0.0824691 0.0192132 -0.0827647 0.0175382 -0.0831588 0.0158632 -0.0843412 0.0140897 -0.0842426 0.0126118 -0.0845382 0.0110353 -0.085425 0.00906471 -0.0859176 0.00798088 -0.0860162 0.00610882 -0.0870015 0.00463088 -0.0871 0.00315294 -0.0873956 0.00187206 -0.0874941 0.000492647 -0.0884794 -0.000788235 -0.0883809 -0.00206912 0.0067 -0.245338 0.0856221 0.00206912 0.0845382 0.000788235 0.0845382 -0.000492647 0.0836515 -0.00187206 0.0831588 -0.00315294 0.0822721 -0.00463088 0.082075 -0.00610882 0.0811882 -0.00699559 0.0806956 -0.00906471 0.0805971 -0.01005 0.0795132 -0.0116265 0.0784294 -0.0133015 0.0784294 -0.0148779 0.0778382 -0.0165529 0.0767544 -0.0182279 0.0766559 -0.0199029 0.0754735 -0.0211838 0.0748824 -0.0231544 0.0742912 -0.0248294 0.0739956 -0.0267015 0.0729118 -0.028475 0.0723206 -0.03015 0.0715324 -0.0324162 0.0707441 -0.0339926 0.0702515 -0.0360618 0.0693647 -0.0380324 0.068675 -0.0396088 0.0679853 -0.0422691 0.0671971 -0.0438456 0.0668029 -0.0462103 0.0657191 -0.0481809 0.065325 -0.0506441 0.0654235 0.21844zm0.0220706 -0.244353l0.304456 0.0281794 -0.239032 0.19026 -0.0654235 -0.21844zm-1.57657 -1.19565l-0.0287706 0.244353 0.13134 -0.159224 0.0202971 0.0598074 0.0222676 0.0583294 0.0243368 0.0572456 0.0252235 0.0550779 0.0277853 0.0539941 0.0290662 0.051925 0.0311353 0.0501515 0.0329088 0.0490676 0.0342882 0.0473926 0.0356676 0.0457176 0.0379338 0.0444368 0.0391162 0.0422691 0.0410868 0.0409882 0.0421706 0.0391162 0.0445353 0.0379338 0.0456191 0.0356676 0.0472941 0.0347809 0.0489691 0.0324162 0.0506441 0.0311353 0.0516294 0.0291647 0.0537971 0.0278838 0.0548809 0.0259132 0.0568515 0.0240412 0.0578368 0.0225632 0.0599059 0.0204941 0.0612853 0.0192132 0.0623691 0.0166515 0.0641426 0.015075 0.0656206 0.0135971 0.067 0.0111338 0.068675 0.00945882 0.0696603 0.00788235 -0.0220706 0.244353 -0.0773456 -0.00788235 -0.0755721 -0.0104441 -0.0746853 -0.0129074 -0.0733059 -0.0145824 -0.0718279 -0.0170456 -0.0710397 -0.0196074 -0.0689706 -0.0209868 -0.0675912 -0.02345 -0.0665074 -0.0255191 -0.0645368 -0.0277853 -0.0635515 -0.0298544 -0.0614824 -0.0316279 -0.0603 -0.0340912 -0.0583294 -0.0358647 -0.0566544 -0.0381309 -0.0549794 -0.0397074 -0.0533044 -0.0423676 -0.0512353 -0.0436485 -0.0498559 -0.0460132 -0.0477868 -0.0476882 -0.0460132 -0.0499544 -0.0436485 -0.0511368 -0.0423676 -0.0534029 -0.0400029 -0.0550779 -0.0378353 -0.0567529 -0.0358647 -0.0588221 -0.0339926 -0.0605956 -0.0315294 -0.0616794 -0.03015 -0.0637485 -0.0270956 -0.0649309 -0.0252235 -0.067 -0.0232529 -0.0684779 0.13134 -0.159224zm-0.13134 0.159224l-0.0581324 -0.181984 0.189472 0.0227603 -0.13134 0.159224zm0.847353 0.0511368l0.0567529 -0.238638 0.00335 0.238146 -0.0222676 0.00581324 -0.0225632 0.00551765 -0.0226618 0.00522206 -0.0230559 0.00443382 -0.0231544 0.00463088 -0.0229574 0.00423676 -0.0237456 0.00354706 -0.0238441 0.00374412 -0.0236471 0.00295588 -0.0237456 0.00325147 -0.0245338 0.00236471 -0.0243368 0.00266029 -0.0243368 0.00187206 -0.0252235 0.00157647 -0.0248294 0.00128088 -0.0246324 0.00108382 -0.0259132 0.000788235 -0.0254206 0.000492647 -0.0252235 0.000197059 -0.0255191 0 -0.0262088 -0.000295588 -0.0262088 -0.000591176 -0.0261103 -0.000886765 -0.0263074 -0.00108382 -0.0268 -0.00128088 -0.0271941 -0.001675 -0.0268985 -0.00177353 -0.0274897 -0.00216765 -0.0267015 -0.00285735 -0.0274897 -0.00256176 -0.0280809 -0.00285735 -0.0277853 -0.00315294 0.0287706 -0.244353 0.0260118 0.00315294 0.025125 0.00285735 0.0255191 0.00256176 0.0257162 0.00187206 0.0247309 0.00216765 0.0249279 0.00177353 0.0242382 0.001675 0.0240412 0.00128088 0.0243368 0.00108382 0.0241397 0.000886765 0.02345 0.000591176 0.0232529 0.000295588 0.0235485 0 0.0232529 -0.000197059 0.0226618 -0.000492647 0.0219721 -0.000788235 0.0226618 -0.00108382 0.0220706 -0.00128088 0.0212824 -0.00157647 0.0215779 -0.00187206 0.0213809 -0.001675 0.0205926 -0.00236471 0.0209868 -0.00226618 0.0206912 -0.00295588 0.0201 -0.00275882 0.0198044 -0.00354706 0.0200015 -0.00344853 0.0194103 -0.00364559 0.0191147 -0.00443382 0.0189176 -0.00423676 0.0186221 -0.00453235 0.0185235 -0.00482794 0.00335 0.238146zm0.0567529 -0.238638l0.46969 0.112521 -0.46634 0.125625 -0.00335 -0.238146zm-1.35035 -1.69648l-0.101091 0.224253 0.173215 -0.114491 0.00325147 0.075375 0.00581324 0.0739956 0.00886765 0.0727147 0.0114294 0.0708426 0.0142868 0.0700544 0.0171441 0.0684779 0.0195088 0.0669015 0.0218735 0.0649309 0.0245338 0.0637485 0.0272926 0.0622706 0.0292632 0.0609897 0.0320221 0.0587235 0.0343868 0.0573441 0.0363574 0.0556691 0.0383279 0.0536985 0.0411853 0.0518265 0.0424662 0.0503485 0.045225 0.0482794 0.0472941 0.0468015 0.0489691 0.0441412 0.0506441 0.0429588 0.0531074 0.0402985 0.0550779 0.0386235 0.0565559 0.0363574 0.0583294 0.0343868 0.0598074 0.0321206 0.061975 0.0300515 0.06365 0.0276868 0.065325 0.025125 0.0664088 0.0230559 0.0683794 0.0205926 0.0694632 0.0183265 -0.0567529 0.238638 -0.0791191 -0.0202971 -0.07705 -0.0233515 -0.0760647 -0.0260118 -0.0739956 -0.0290662 -0.0723206 -0.0314309 -0.0706456 -0.0339926 -0.0692662 -0.03685 -0.067 -0.0393132 -0.0652265 -0.0420721 -0.0627632 -0.0443382 -0.0607926 -0.0469985 -0.0593147 -0.0488706 -0.0566544 -0.0518265 -0.0541912 -0.0535015 -0.051925 -0.0559647 -0.0501515 -0.0580338 -0.0469 -0.0604971 -0.0450279 -0.0623691 -0.0422691 -0.0643397 -0.0391162 -0.0660147 -0.0367515 -0.0683794 -0.0341897 -0.0696603 -0.0310368 -0.0717294 -0.028475 -0.0734044 -0.0256176 -0.0755721 -0.0224647 -0.0765574 -0.0191147 -0.0781338 -0.0162574 -0.0795132 -0.0132029 -0.0814838 -0.00985294 -0.0823706 -0.00679853 -0.0836515 -0.00325147 -0.0850309 0.173215 -0.114491zm-0.173215 0.114491l-0.00394118 -0.194793 0.177156 0.0803015 -0.173215 0.114491zm0.826169 0.306624l0.142474 -0.200212 -0.0736015 0.222775 -0.0256176 -0.000689706 -0.0256176 -0.00118235 -0.0253221 -0.00157647 -0.0257162 -0.00256176 -0.0255191 -0.00246324 -0.0254206 -0.00335 -0.0261103 -0.00325147 -0.0255191 -0.00423676 -0.0252235 -0.00403971 -0.0257162 -0.00482794 -0.0259132 -0.00532059 -0.0258147 -0.00571471 -0.0260118 -0.00610882 -0.0256176 -0.00601029 -0.0255191 -0.00679853 -0.0257162 -0.00709412 -0.0258147 -0.00748824 -0.0257162 -0.00788235 -0.0254206 -0.00798088 -0.0259132 -0.00847353 -0.0259132 -0.00827647 -0.0256176 -0.00916324 -0.0256176 -0.00936029 -0.0260118 -0.00965588 -0.0257162 -0.00995147 -0.0258147 -0.0102471 -0.0258147 -0.0104441 -0.0262088 -0.0103456 -0.0254206 -0.0110353 -0.0260118 -0.0111338 -0.0260118 -0.0115279 -0.0255191 -0.0112324 0.101091 -0.224253 0.0245338 0.0112324 0.0240412 0.0105426 0.0240412 0.0103456 0.0244353 0.01005 0.02345 0.0103456 0.0238441 0.00945882 0.0238441 0.00926176 0.0237456 0.00896618 0.0232529 0.00867059 0.0236471 0.008375 0.0236471 0.00817794 0.0231544 0.00827647 0.0229574 0.00748824 0.02345 0.00719265 0.0229574 0.00689706 0.0228588 0.00650294 0.0227603 0.00610882 0.0227603 0.00581324 0.0226618 0.00601029 0.0220706 0.00512353 0.0220706 0.00472941 0.0219721 0.00433529 0.0219721 0.00403971 0.0222676 0.00403971 0.021775 0.00325147 0.0211838 0.00325147 0.0216765 0.00236471 0.0215779 0.00246324 0.0209868 0.00157647 0.0213809 0.00157647 0.0208882 0.00118235 0.0206912 0.000689706 -0.0736015 0.222775zm0.142474 -0.200212l0.324654 0.231249 -0.398256 -0.00847353 0.0736015 -0.222775zm-0.507624 -2.271l-0.185629 0.160603 0.200606 -0.0210853 -0.0347809 0.0664088 -0.0315294 0.0674926 -0.0287706 0.0685765 -0.0260118 0.0693647 -0.0221691 0.0698574 -0.0193118 0.0708426 -0.0164544 0.0709412 -0.0131044 0.0714338 -0.00965588 0.0718279 -0.00679853 0.072025 -0.00374412 0.0716309 -0.000295588 0.0726162 0.00315294 0.0716309 0.00620735 0.0719265 0.00916324 0.0711382 0.0129074 0.0706456 0.0163559 0.0706456 0.0190162 0.0696603 0.0231544 0.0691676 0.0258147 0.0679853 0.0295588 0.0674926 0.0332044 0.0664088 0.0363574 0.0657191 0.0402 0.0639456 0.0434515 0.0631574 0.0468015 0.0614824 0.0505456 0.0604971 0.0544868 0.058625 0.0581324 0.0574426 0.0617779 0.0553735 0.0655221 0.0538956 0.0694632 0.0516294 -0.142474 0.200212 -0.0781338 -0.0585265 -0.0741926 -0.0605956 -0.0702515 -0.0630588 -0.0660147 -0.0651279 -0.0621721 -0.0672956 -0.0582309 -0.0691676 -0.0544868 -0.0711382 -0.0501515 -0.0726162 -0.0459147 -0.0745868 -0.0422691 -0.075375 -0.0379338 -0.07705 -0.0342882 -0.0779368 -0.0307412 -0.0796118 -0.0259132 -0.0798088 -0.0229574 -0.0810897 -0.0183265 -0.0812868 -0.0146809 -0.0822721 -0.0111338 -0.0825676 -0.00719265 -0.0825676 -0.00315294 -0.0830603 0.000295588 -0.0822721 0.00374412 -0.0832574 0.00778382 -0.0826662 0.0116265 -0.0822721 0.0148779 -0.082075 0.018425 -0.0815824 0.0222676 -0.0804985 0.0259132 -0.0803015 0.0289676 -0.0790206 0.0325147 -0.0782324 0.0364559 -0.0771485 0.0395103 -0.0760647 0.200606 -0.0210853zm-0.200606 0.0210853l0.0850309 -0.15479 0.115575 0.133704 -0.200606 0.0210853zm3.52735 1.88733l0.239624 -0.0567529 -0.129468 0.151046 -0.137449 -0.0129074 -0.135872 -0.0158632 -0.134394 -0.0183265 -0.132719 -0.0215779 -0.131143 -0.0244353 -0.129566 -0.0278838 -0.128088 -0.0302485 -0.126413 -0.0336971 -0.124837 -0.0364559 -0.123359 -0.0392147 -0.121782 -0.0420721 -0.120107 -0.0449294 -0.118826 -0.0477868 -0.117546 -0.0510382 -0.115082 -0.0538956 -0.113999 -0.0566544 -0.112619 -0.0593147 -0.111043 -0.0622706 -0.108974 -0.0649309 -0.107988 -0.0681824 -0.106018 -0.0705471 -0.10454 -0.0736015 -0.102963 -0.0765574 -0.101387 -0.0791191 -0.100106 -0.0813853 -0.0984309 -0.0845382 -0.0966574 -0.0873956 -0.095475 -0.09045 -0.0937015 -0.0927162 -0.0920265 -0.0952779 -0.0902529 -0.0981353 -0.0891691 -0.100697 0.185629 -0.160603 0.085425 0.0967559 0.0872971 0.0941941 0.0882824 0.0915338 0.0897603 0.088775 0.0907456 0.0857206 0.0927162 0.0834544 0.0937015 0.0807941 0.0951794 0.0784294 0.0966574 0.075375 0.0982338 0.0726162 0.0996132 0.0698574 0.101288 0.0675912 0.102076 0.0644382 0.104244 0.061975 0.105328 0.0593147 0.106707 0.0565559 0.108284 0.0536985 0.110353 0.0509397 0.110846 0.0482794 0.112915 0.0458162 0.114393 0.0429588 0.116068 0.0401015 0.117447 0.0374412 0.119122 0.0344853 0.120699 0.0317265 0.122176 0.0292632 0.123851 0.0259132 0.125428 0.0236471 0.127004 0.0205926 0.128482 0.0183265 0.130157 0.0148779 0.131734 0.0119221 -0.129468 0.151046zm0.239624 -0.0567529l0.0391162 0.164741 -0.168584 -0.0136956 0.129468 -0.151046z"/>
   <path id="1" class="fil1" d="M4.55984 2.23987c-0.369288,-1.55696 1.54484,-2.89893 2.94002,-1.57026 0.375693,-0.0832574 0.736704,-0.220706 1.08353,-0.410966 -0.139518,0.418257 -0.403971,0.711678 -0.736507,0.936818 0.323275,-0.0414809 0.647338,-0.119615 0.960563,-0.264256 -0.221297,0.346626 -0.51521,0.632854 -0.849422,0.885287 0.0797103,4.50654 -4.45491,6.19553 -7.49267,4.36219 0.929921,0.0287706 1.78506,-0.154297 2.50324,-0.726162 -0.790994,-0.0731088 -1.35872,-0.502796 -1.57992,-1.19565 0.28741,0.0344853 0.542601,0.0270956 0.758775,-0.0311353 -0.799862,-0.19164 -1.35488,-0.841934 -1.37251,-1.70367 0.267507,0.12129 0.528019,0.20366 0.774737,0.208882 -0.808335,-0.575609 -0.943025,-1.53726 -0.529201,-2.29081 0.923319,1.06776 2.09493,1.68239 3.53937,1.79974z"/>
  </g>
 </g>
</svg>
