<?xml version="1.0" encoding="UTF-8"?>
<!DOCTYPE svg PUBLIC "-//W3C//DTD SVG 1.1//EN" "http://www.w3.org/Graphics/SVG/1.1/DTD/svg11.dtd">
<!-- Creator: CorelDRAW -->
<svg xmlns="http://www.w3.org/2000/svg" xml:space="preserve" width="18.4661mm" height="13.69mm" style="shape-rendering:geometricPrecision; text-rendering:geometricPrecision; image-rendering:optimizeQuality; fill-rule:evenodd; clip-rule:evenodd"
viewBox="0 0 17.9291 13.2919"
 xmlns:xlink="http://www.w3.org/1999/xlink">
 <defs>
  <style type="text/css">
   <![CDATA[
    .str0 {stroke:#0A0B0C;stroke-width:0.970919}
    .fil0 {fill:none}
    .fil1 {fill:white}
   ]]>
  </style>
 </defs>
 <g id="Layer_x0020_1">
  <metadata id="CorelCorpID_0Corel-Layer"/>
  <g>
   <path class="fil0 str0" d="M9.09732 4.53312c-0.655176,-2.76178 2.73993,-5.14189 5.21471,-2.78527 0.666147,-0.147677 1.30657,-0.391474 1.92174,-0.729063 -0.24739,0.741879 -0.716344,1.26229 -1.30637,1.66173 0.573619,-0.0735956 1.14821,-0.211952 1.70406,-0.468663 -0.392834,0.614786 -0.913829,1.12248 -1.50687,1.57017 0.141366,7.99338 -7.90173,10.9893 -13.2899,7.73725 1.6493,0.0512645 3.16617,-0.273605 4.43991,-1.28773 -1.40288,-0.129812 -2.41001,-0.891886 -2.80217,-2.12088 0.509829,0.0611679 0.962375,0.0478663 1.34589,-0.0552453 -1.419,-0.339822 -2.40322,-1.49337 -2.43458,-3.02198 0.474391,0.215156 0.936451,0.361279 1.37424,0.370794 -1.43366,-1.02112 -1.6726,-2.72692 -0.938781,-4.06349 1.63775,1.89378 3.716,2.98422 6.27816,3.19238z"/>
   <path id="1" class="fil1" d="M9.09732 4.53312c-0.655176,-2.76178 2.73993,-5.14189 5.21471,-2.78527 0.666147,-0.147677 1.30657,-0.391474 1.92174,-0.729063 -0.24739,0.741879 -0.716344,1.26229 -1.30637,1.66173 0.573619,-0.0735956 1.14821,-0.211952 1.70406,-0.468663 -0.392834,0.614786 -0.913829,1.12248 -1.50687,1.57017 0.141366,7.99338 -7.90173,10.9893 -13.2899,7.73725 1.6493,0.0512645 3.16617,-0.273605 4.43991,-1.28773 -1.40288,-0.129812 -2.41001,-0.891886 -2.80217,-2.12088 0.509829,0.0611679 0.962375,0.0478663 1.34589,-0.0552453 -1.419,-0.339822 -2.40322,-1.49337 -2.43458,-3.02198 0.474391,0.215156 0.936451,0.361279 1.37424,0.370794 -1.43366,-1.02112 -1.6726,-2.72692 -0.938781,-4.06349 1.63775,1.89378 3.716,2.98422 6.27816,3.19238z"/>
  </g>
 </g>
</svg>
