<?xml version="1.0" encoding="UTF-8"?>
<!DOCTYPE svg PUBLIC "-//W3C//DTD SVG 1.1//EN" "http://www.w3.org/Graphics/SVG/1.1/DTD/svg11.dtd">
<!-- Creator: CorelDRAW -->
<svg xmlns="http://www.w3.org/2000/svg" xml:space="preserve" width="20.0788mm" height="14.4636mm" style="shape-rendering:geometricPrecision; text-rendering:geometricPrecision; image-rendering:optimizeQuality; fill-rule:evenodd; clip-rule:evenodd"
viewBox="0 0 19.2814 13.8892"
 xmlns:xlink="http://www.w3.org/1999/xlink">
 <defs>
  <style type="text/css">
   <![CDATA[
    .str0 {stroke:#0A0B0C;stroke-width:1.44043}
    .fil0 {fill:none}
    .fil1 {fill:white}
   ]]>
  </style>
 </defs>
 <g id="Layer_x0020_1">
  <metadata id="CorelCorpID_0Corel-Layer"/>
  <g>
   <path class="fil0 str0" d="M9.90534 4.98724c-0.648097,-2.73163 2.70993,-5.08558 5.1575,-2.75487 0.658852,-0.146155 1.29226,-0.387187 1.90079,-0.721078 -0.244681,0.733754 -0.708595,1.24847 -1.29216,1.64353 0.567337,-0.0727896 1.13563,-0.209726 1.6853,-0.463626 -0.388435,0.608149 -0.903821,1.11028 -1.49027,1.55307 0.139818,7.90593 -7.81528,10.869 -13.1445,7.65251 1.63143,0.0507031 3.13159,-0.270608 4.39148,-1.27353 -1.38761,-0.128486 -2.38372,-0.882214 -2.77158,-2.09774 0.504342,0.060498 0.951931,0.0473421 1.33105,-0.0546402 -1.40336,-0.336004 -2.3769,-1.47692 -2.40782,-2.98889 0.469099,0.212799 0.926195,0.357418 1.35919,0.366733 -1.41796,-1.00993 -1.65428,-2.69706 -0.9285,-4.01899 1.61981,1.87304 3.6753,2.95163 6.20949,3.15751z"/>
   <path id="1" class="fil1" d="M9.90534 4.98724c-0.648097,-2.73163 2.70993,-5.08558 5.1575,-2.75487 0.658852,-0.146155 1.29226,-0.387187 1.90079,-0.721078 -0.244681,0.733754 -0.708595,1.24847 -1.29216,1.64353 0.567337,-0.0727896 1.13563,-0.209726 1.6853,-0.463626 -0.388435,0.608149 -0.903821,1.11028 -1.49027,1.55307 0.139818,7.90593 -7.81528,10.869 -13.1445,7.65251 1.63143,0.0507031 3.13159,-0.270608 4.39148,-1.27353 -1.38761,-0.128486 -2.38372,-0.882214 -2.77158,-2.09774 0.504342,0.060498 0.951931,0.0473421 1.33105,-0.0546402 -1.40336,-0.336004 -2.3769,-1.47692 -2.40782,-2.98889 0.469099,0.212799 0.926195,0.357418 1.35919,0.366733 -1.41796,-1.00993 -1.65428,-2.69706 -0.9285,-4.01899 1.61981,1.87304 3.6753,2.95163 6.20949,3.15751z"/>
  </g>
 </g>
</svg>
