<?xml version="1.0" encoding="UTF-8"?>
<!DOCTYPE svg PUBLIC "-//W3C//DTD SVG 1.1//EN" "http://www.w3.org/Graphics/SVG/1.1/DTD/svg11.dtd">
<!-- Creator: CorelDRAW -->
<svg xmlns="http://www.w3.org/2000/svg" xml:space="preserve" width="21.6925mm" height="15.2375mm" style="shape-rendering:geometricPrecision; text-rendering:geometricPrecision; image-rendering:optimizeQuality; fill-rule:evenodd; clip-rule:evenodd"
viewBox="0 0 20.6397 14.498"
 xmlns:xlink="http://www.w3.org/1999/xlink">
 <defs>
  <style type="text/css">
   <![CDATA[
    .str0 {stroke:#838281;stroke-width:1.90293}
    .fil0 {fill:none}
    .fil1 {fill:white}
   ]]>
  </style>
 </defs>
 <g id="Layer_x0020_1">
  <metadata id="CorelCorpID_0Corel-Layer"/>
  <g>
   <path class="fil0 str0" d="M10.7132 5.44077c-0.64205,-2.70645 2.68504,-5.03887 5.11024,-2.72947 0.652802,-0.144718 1.28039,-0.383632 1.88324,-0.714457 -0.242434,0.727016 -0.701992,1.237 -1.2802,1.62844 0.562127,-0.0721212 1.12521,-0.207705 1.66992,-0.459273 -0.384964,0.602469 -0.895521,1.09999 -1.47668,1.53871 0.138534,7.83324 -7.74342,10.7692 -13.0237,7.58224 1.61626,0.0502375 3.10273,-0.268123 4.35096,-1.26193 -1.37477,-0.127211 -2.36173,-0.874018 -2.74603,-2.07838 0.499615,0.0599424 0.943094,0.0469073 1.31892,-0.0541385 -1.39057,-0.333014 -2.35507,-1.46345 -2.3858,-2.96144 0.464887,0.210845 0.91769,0.354041 1.34671,0.363365 -1.40494,-1.00066 -1.63909,-2.67229 -0.919974,-3.98208 1.60493,1.85584 3.64155,2.92443 6.15238,3.12842z"/>
   <path id="1" class="fil1" d="M10.7132 5.44077c-0.64205,-2.70645 2.68504,-5.03887 5.11024,-2.72947 0.652802,-0.144718 1.28039,-0.383632 1.88324,-0.714457 -0.242434,0.727016 -0.701992,1.237 -1.2802,1.62844 0.562127,-0.0721212 1.12521,-0.207705 1.66992,-0.459273 -0.384964,0.602469 -0.895521,1.09999 -1.47668,1.53871 0.138534,7.83324 -7.74342,10.7692 -13.0237,7.58224 1.61626,0.0502375 3.10273,-0.268123 4.35096,-1.26193 -1.37477,-0.127211 -2.36173,-0.874018 -2.74603,-2.07838 0.499615,0.0599424 0.943094,0.0469073 1.31892,-0.0541385 -1.39057,-0.333014 -2.35507,-1.46345 -2.3858,-2.96144 0.464887,0.210845 0.91769,0.354041 1.34671,0.363365 -1.40494,-1.00066 -1.63909,-2.67229 -0.919974,-3.98208 1.60493,1.85584 3.64155,2.92443 6.15238,3.12842z"/>
  </g>
 </g>
</svg>
