<?xml version="1.0" encoding="UTF-8"?>
<!DOCTYPE svg PUBLIC "-//W3C//DTD SVG 1.1//EN" "http://www.w3.org/Graphics/SVG/1.1/DTD/svg11.dtd">
<!-- Creator: CorelDRAW -->
<svg xmlns="http://www.w3.org/2000/svg" xml:space="preserve" width="18.5467mm" height="14.2656mm" style="shape-rendering:geometricPrecision; text-rendering:geometricPrecision; image-rendering:optimizeQuality; fill-rule:evenodd; clip-rule:evenodd"
viewBox="0 0 18.2741 14.0559"
 xmlns:xlink="http://www.w3.org/1999/xlink">
 <defs>
  <style type="text/css">
   <![CDATA[
    .str0 {stroke:#0A0B0C;stroke-width:0.49265}
    .fil0 {fill:none}
    .fil1 {fill:white}
   ]]>
  </style>
 </defs>
 <g id="Layer_x0020_1">
  <metadata id="CorelCorpID_0Corel-Layer"/>
  <g>
   <path class="fil0 str0" d="M9.12033 4.47967c-0.738778,-3.11414 3.08951,-5.7979 5.87998,-3.14064 0.751193,-0.166614 1.47322,-0.441513 2.16697,-0.822134 -0.278938,0.83652 -0.807848,1.42336 -1.47312,1.87375 0.64685,-0.0829623 1.29478,-0.239034 1.92143,-0.528515 -0.442892,0.693257 -1.03043,1.26572 -1.69905,1.77058 0.159422,9.01323 -8.90987,12.3913 -14.9855,8.72434 1.85985,0.0578371 3.57014,-0.308497 5.00651,-1.45194 -1.582,-0.146416 -2.71756,-1.0057 -3.15976,-2.39152 0.574923,0.068971 1.08521,0.0539945 1.51756,-0.062271 -1.59993,-0.383183 -2.70987,-1.68388 -2.74514,-3.40756 0.534821,0.242679 1.05595,0.407422 1.54958,0.418161 -1.61658,-1.15152 -1.88606,-3.07492 -1.05851,-4.58194 1.84665,2.13534 4.18999,3.365 7.07909,3.5997z"/>
   <path id="1" class="fil1" d="M9.12033 4.47967c-0.738778,-3.11414 3.08951,-5.7979 5.87998,-3.14064 0.751193,-0.166614 1.47322,-0.441513 2.16697,-0.822134 -0.278938,0.83652 -0.807848,1.42336 -1.47312,1.87375 0.64685,-0.0829623 1.29478,-0.239034 1.92143,-0.528515 -0.442892,0.693257 -1.03043,1.26572 -1.69905,1.77058 0.159422,9.01323 -8.90987,12.3913 -14.9855,8.72434 1.85985,0.0578371 3.57014,-0.308497 5.00651,-1.45194 -1.582,-0.146416 -2.71756,-1.0057 -3.15976,-2.39152 0.574923,0.068971 1.08521,0.0539945 1.51756,-0.062271 -1.59993,-0.383183 -2.70987,-1.68388 -2.74514,-3.40756 0.534821,0.242679 1.05595,0.407422 1.54958,0.418161 -1.61658,-1.15152 -1.88606,-3.07492 -1.05851,-4.58194 1.84665,2.13534 4.18999,3.365 7.07909,3.5997z"/>
  </g>
 </g>
</svg>
