<?xml version="1.0" encoding="UTF-8"?>
<!DOCTYPE svg PUBLIC "-//W3C//DTD SVG 1.1//EN" "http://www.w3.org/Graphics/SVG/1.1/DTD/svg11.dtd">
<!-- Creator: CorelDRAW -->
<svg xmlns="http://www.w3.org/2000/svg" xml:space="preserve" width="16.24mm" height="16.24mm" style="shape-rendering:geometricPrecision; text-rendering:geometricPrecision; image-rendering:optimizeQuality; fill-rule:evenodd; clip-rule:evenodd"
viewBox="0 0 16.24 16.24"
 xmlns:xlink="http://www.w3.org/1999/xlink">
 <defs>
  <style type="text/css">
   <![CDATA[
    .str0 {stroke:#0A0B0C;stroke-width:1}
    .str1 {stroke:#0A0B0C;stroke-width:1;stroke-linecap:round;stroke-linejoin:round}
    .fil0 {fill:none}
    .fil1 {fill:white}
   ]]>
  </style>
 </defs>
 <g id="Layer_x0020_1">
  <metadata id="CorelCorpID_0Corel-Layer"/>
  <g id="_119678056">
   <g>
    <path id="_34986744" class="fil0 str0" d="M8.12 0.5c4.2077,0 7.62,3.4123 7.62,7.62 0,4.2077 -3.4123,7.62 -7.62,7.62 -1.5362,0 -2.9662,-0.4551 -4.1628,-1.2376l-2.9678 0.9391 0.9683 -2.8399c-0.9165,-1.2579 -1.4577,-2.8066 -1.4577,-4.4816 0,-4.2077 3.4123,-7.62 7.62,-7.62z"/>
    <path id="_349867441" class="fil1" d="M8.12 0.5c4.2077,0 7.62,3.4123 7.62,7.62 0,4.2077 -3.4123,7.62 -7.62,7.62 -1.5362,0 -2.9662,-0.4551 -4.1628,-1.2376l-2.9678 0.9391 0.9683 -2.8399c-0.9165,-1.2579 -1.4577,-2.8066 -1.4577,-4.4816 0,-4.2077 3.4123,-7.62 7.62,-7.62z"/>
   </g>
   <g>
    <path class="fil0 str1" d="M5.272 4.3873l0.5635 0c0.2806,-0.0236 0.5497,0.9872 0.9789,1.9352l0 0.1453c-0.2937,0.6974 -0.6163,0.7006 -0.6647,1.005 -0.0002,0.4203 1.4523,1.9986 2.7819,2.5129 0.1711,0.0937 0.3144,-0.0087 0.4418,-0.1834l0.5668 -0.7042c0.0986,-0.1256 0.241,-0.1405 0.4417,-0.0584l1.5587 0.7502c0.1968,0.0903 0.2169,0.2821 0.1668,0.5334l-0.1252 0.5126c-0.293,0.6544 -1.4488,1.2267 -2.3421,0.9419 -3.2773,-0.6537 -6.7268,-4.7979 -5.1304,-6.8139 0.2149,-0.2809 0.4534,-0.5436 0.7623,-0.5766z"/>
    <path id="1" class="fil1" d="M5.272 4.3873l0.5635 0c0.2806,-0.0236 0.5497,0.9872 0.9789,1.9352l0 0.1453c-0.2937,0.6974 -0.6163,0.7006 -0.6647,1.005 -0.0002,0.4203 1.4523,1.9986 2.7819,2.5129 0.1711,0.0937 0.3144,-0.0087 0.4418,-0.1834l0.5668 -0.7042c0.0986,-0.1256 0.241,-0.1405 0.4417,-0.0584l1.5587 0.7502c0.1968,0.0903 0.2169,0.2821 0.1668,0.5334l-0.1252 0.5126c-0.293,0.6544 -1.4488,1.2267 -2.3421,0.9419 -3.2773,-0.6537 -6.7268,-4.7979 -5.1304,-6.8139 0.2149,-0.2809 0.4534,-0.5436 0.7623,-0.5766z"/>
   </g>
  </g>
 </g>
</svg>
