<?xml version="1.0" encoding="UTF-8"?>
<!DOCTYPE svg PUBLIC "-//W3C//DTD SVG 1.1//EN" "http://www.w3.org/Graphics/SVG/1.1/DTD/svg11.dtd">
<!-- Creator: CorelDRAW -->
<svg xmlns="http://www.w3.org/2000/svg" xml:space="preserve" width="17.5868mm" height="17.6832mm" style="shape-rendering:geometricPrecision; text-rendering:geometricPrecision; image-rendering:optimizeQuality; fill-rule:evenodd; clip-rule:evenodd"
viewBox="0 0 17.5868 17.6832"
 xmlns:xlink="http://www.w3.org/1999/xlink">
 <defs>
  <style type="text/css">
   <![CDATA[
    .str0 {stroke:#0A0B0C;stroke-width:1.5}
    .str1 {stroke:#0A0B0C;stroke-width:1.5;stroke-linecap:round;stroke-linejoin:round}
    .fil0 {fill:none}
    .fil1 {fill:white}
   ]]>
  </style>
 </defs>
 <g id="Layer_x0020_1">
  <metadata id="CorelCorpID_0Corel-Layer"/>
  <g id="_124405440">
   <g>
    <path id="_33737584" class="fil0 str0" d="M8.7934 0.75c4.4414,0 8.0434,3.602 8.0434,8.0434 0,4.4414 -3.602,8.0434 -8.0434,8.0434 -1.6215,0 -3.131,-0.4805 -4.3941,-1.3064l-3.1326 0.9911 1.0221 -2.9976c-0.9674,-1.3276 -1.5388,-2.9623 -1.5388,-4.7305 0,-4.4414 3.602,-8.0434 8.0434,-8.0434z"/>
    <path id="_337375841" class="fil1" d="M8.7934 0.75c4.4414,0 8.0434,3.602 8.0434,8.0434 0,4.4414 -3.602,8.0434 -8.0434,8.0434 -1.6215,0 -3.131,-0.4805 -4.3941,-1.3064l-3.1326 0.9911 1.0221 -2.9976c-0.9674,-1.3276 -1.5388,-2.9623 -1.5388,-4.7305 0,-4.4414 3.602,-8.0434 8.0434,-8.0434z"/>
   </g>
   <g>
    <path class="fil0 str1" d="M5.5643 4.4691l0.669 0c0.3333,-0.0279 0.6527,1.1722 1.1624,2.2978l0 0.1725c-0.3486,0.8283 -0.7319,0.8319 -0.7892,1.1935 -0.0004,0.499 1.7242,2.3731 3.3031,2.9838 0.2032,0.1111 0.3733,-0.0104 0.5245,-0.2178l0.6731 -0.8363c0.117,-0.149 0.2861,-0.1668 0.5245,-0.0692l1.8507 0.8907c0.2337,0.1073 0.2575,0.3349 0.198,0.6334l-0.1485 0.6087c-0.348,0.7769 -1.7204,1.4564 -2.7811,1.1183 -3.8914,-0.7762 -7.9872,-5.6969 -6.0917,-8.0907 0.2552,-0.3335 0.5383,-0.6454 0.9052,-0.6847z"/>
    <path id="1" class="fil1" d="M5.5643 4.4691l0.669 0c0.3333,-0.0279 0.6527,1.1722 1.1624,2.2978l0 0.1725c-0.3486,0.8283 -0.7319,0.8319 -0.7892,1.1935 -0.0004,0.499 1.7242,2.3731 3.3031,2.9838 0.2032,0.1111 0.3733,-0.0104 0.5245,-0.2178l0.6731 -0.8363c0.117,-0.149 0.2861,-0.1668 0.5245,-0.0692l1.8507 0.8907c0.2337,0.1073 0.2575,0.3349 0.198,0.6334l-0.1485 0.6087c-0.348,0.7769 -1.7204,1.4564 -2.7811,1.1183 -3.8914,-0.7762 -7.9872,-5.6969 -6.0917,-8.0907 0.2552,-0.3335 0.5383,-0.6454 0.9052,-0.6847z"/>
   </g>
  </g>
 </g>
</svg>
