<?xml version="1.0" encoding="UTF-8"?>
<!DOCTYPE svg PUBLIC "-//W3C//DTD SVG 1.1//EN" "http://www.w3.org/Graphics/SVG/1.1/DTD/svg11.dtd">
<!-- Creator: CorelDRAW -->
<svg xmlns="http://www.w3.org/2000/svg" xml:space="preserve" width="17.3333mm" height="17.4906mm" style="shape-rendering:geometricPrecision; text-rendering:geometricPrecision; image-rendering:optimizeQuality; fill-rule:evenodd; clip-rule:evenodd"
viewBox="0 0 17.2405 17.397"
 xmlns:xlink="http://www.w3.org/1999/xlink">
 <defs>
  <style type="text/css">
   <![CDATA[
    .str0 {stroke:#838281;stroke-width:1.98929}
    .str1 {stroke:#838281;stroke-width:1.98929;stroke-linecap:round;stroke-linejoin:round}
    .fil0 {fill:none}
    .fil1 {fill:white}
   ]]>
  </style>
 </defs>
 <g id="Layer_x0020_1">
  <metadata id="CorelCorpID_0Corel-Layer"/>
  <g id="_34987968">
   <g>
    <path id="_34986744" class="fil0 str0" d="M8.66665 0.994646c4.18517,0 7.5792,3.39403 7.5792,7.5792 0,4.18517 -3.39403,7.5792 -7.5792,7.5792 -1.52798,0 -2.95032,-0.452663 -4.14051,-1.23097l-2.95191 0.934072 0.963116 -2.8247c-0.911593,-1.25117 -1.4499,-2.79157 -1.4499,-4.45761 0,-4.18517 3.39403,-7.5792 7.5792,-7.5792z"/>
    <path id="_349867441" class="fil1" d="M8.66665 0.994646c4.18517,0 7.5792,3.39403 7.5792,7.5792 0,4.18517 -3.39403,7.5792 -7.5792,7.5792 -1.52798,0 -2.95032,-0.452663 -4.14051,-1.23097l-2.95191 0.934072 0.963116 -2.8247c-0.911593,-1.25117 -1.4499,-2.79157 -1.4499,-4.45761 0,-4.18517 3.39403,-7.5792 7.5792,-7.5792z"/>
   </g>
   <g>
    <path class="fil0 str1" d="M5.8339 4.86113l0.560483 0c0.279098,-0.0234736 0.546757,0.981915 0.973659,1.92484l0 0.144522c-0.292128,0.693666 -0.613,0.696849 -0.661141,0.999619 -0.000198929,0.41805 1.44452,1.9879 2.76701,2.49945 0.170184,0.0931983 0.312717,-0.00865342 0.439435,-0.182418l0.563765 -0.70043c0.0980721,-0.124928 0.23971,-0.139748 0.439335,-0.0580873l1.55035 0.746184c0.195746,0.0898165 0.215739,0.28059 0.165907,0.530544l-0.12453 0.509856c-0.291431,0.650896 -1.44104,1.22013 -2.32956,0.936857 -3.25975,-0.6502 -6.69079,-4.77221 -5.10293,-6.77742 0.213749,-0.279396 0.450973,-0.54069 0.758219,-0.573513z"/>
    <path id="1" class="fil1" d="M5.8339 4.86113l0.560483 0c0.279098,-0.0234736 0.546757,0.981915 0.973659,1.92484l0 0.144522c-0.292128,0.693666 -0.613,0.696849 -0.661141,0.999619 -0.000198929,0.41805 1.44452,1.9879 2.76701,2.49945 0.170184,0.0931983 0.312717,-0.00865342 0.439435,-0.182418l0.563765 -0.70043c0.0980721,-0.124928 0.23971,-0.139748 0.439335,-0.0580873l1.55035 0.746184c0.195746,0.0898165 0.215739,0.28059 0.165907,0.530544l-0.12453 0.509856c-0.291431,0.650896 -1.44104,1.22013 -2.32956,0.936857 -3.25975,-0.6502 -6.69079,-4.77221 -5.10293,-6.77742 0.213749,-0.279396 0.450973,-0.54069 0.758219,-0.573513z"/>
   </g>
  </g>
 </g>
</svg>
