<?xml version="1.0" encoding="UTF-8"?>
<!DOCTYPE svg PUBLIC "-//W3C//DTD SVG 1.1//EN" "http://www.w3.org/Graphics/SVG/1.1/DTD/svg11.dtd">
<!-- Creator: CorelDRAW -->
<svg xmlns="http://www.w3.org/2000/svg" xml:space="preserve" width="17.433mm" height="17.433mm" style="shape-rendering:geometricPrecision; text-rendering:geometricPrecision; image-rendering:optimizeQuality; fill-rule:evenodd; clip-rule:evenodd"
viewBox="0 0 17.433 17.433"
 xmlns:xlink="http://www.w3.org/1999/xlink">
 <defs>
  <style type="text/css">
   <![CDATA[
    .str0 {stroke:#0A0B0C;stroke-width:0.5}
    .str1 {stroke:#0A0B0C;stroke-width:0.5;stroke-linecap:round;stroke-linejoin:round}
    .fil0 {fill:none}
    .fil1 {fill:white}
   ]]>
  </style>
 </defs>
 <g id="Layer_x0020_1">
  <metadata id="CorelCorpID_0Corel-Layer"/>
  <g id="_103458792">
   <g>
    <path id="_33737584" class="fil0 str0" d="M8.7165 0.25c4.6751,0 8.4665,3.7914 8.4665,8.4665 0,4.6751 -3.7914,8.4665 -8.4665,8.4665 -1.7068,0 -3.2957,-0.5057 -4.6253,-1.3751l-3.2974 1.0433 1.0759 -3.1553c-1.0183,-1.3975 -1.6197,-3.1182 -1.6197,-4.9794 0,-4.6751 3.7914,-8.4665 8.4665,-8.4665z"/>
    <path id="_337375841" class="fil1" d="M8.7165 0.25c4.6751,0 8.4665,3.7914 8.4665,8.4665 0,4.6751 -3.7914,8.4665 -8.4665,8.4665 -1.7068,0 -3.2957,-0.5057 -4.6253,-1.3751l-3.2974 1.0433 1.0759 -3.1553c-1.0183,-1.3975 -1.6197,-3.1182 -1.6197,-4.9794 0,-4.6751 3.7914,-8.4665 8.4665,-8.4665z"/>
   </g>
   <g>
    <path class="fil0 str1" d="M5.3175 4.1647l0.7042 0c0.3508,-0.0294 0.6871,1.2339 1.2236,2.4187l0 0.1816c-0.367,0.8718 -0.7704,0.8756 -0.8308,1.2563 -0.0004,0.5252 1.815,2.4979 3.4769,3.1407 0.2139,0.117 0.393,-0.0109 0.5521,-0.2292l0.7085 -0.8803c0.1232,-0.1569 0.3012,-0.1756 0.5521,-0.0729l1.9481 0.9376c0.246,0.1129 0.271,0.3525 0.2084,0.6667l-0.1563 0.6407c-0.3663,0.8178 -1.8109,1.5331 -2.9274,1.1772 -4.0961,-0.8171 -8.4074,-5.9966 -6.4122,-8.5164 0.2686,-0.351 0.5666,-0.6793 0.9528,-0.7207z"/>
    <path id="1" class="fil1" d="M5.3175 4.1647l0.7042 0c0.3508,-0.0294 0.6871,1.2339 1.2236,2.4187l0 0.1816c-0.367,0.8718 -0.7704,0.8756 -0.8308,1.2563 -0.0004,0.5252 1.815,2.4979 3.4769,3.1407 0.2139,0.117 0.393,-0.0109 0.5521,-0.2292l0.7085 -0.8803c0.1232,-0.1569 0.3012,-0.1756 0.5521,-0.0729l1.9481 0.9376c0.246,0.1129 0.271,0.3525 0.2084,0.6667l-0.1563 0.6407c-0.3663,0.8178 -1.8109,1.5331 -2.9274,1.1772 -4.0961,-0.8171 -8.4074,-5.9966 -6.4122,-8.5164 0.2686,-0.351 0.5666,-0.6793 0.9528,-0.7207z"/>
   </g>
  </g>
 </g>
</svg>
